<svg xmlns="http://www.w3.org/2000/svg" viewBox="0 0 271.48 271.48"><defs><style>.cls-1{fill:#ecbc43;stroke:#000;stroke-miterlimit:10;}</style></defs><title>Fichier 4</title><g id="Calque_2" data-name="Calque 2"><g id="Calque_1-2" data-name="Calque 1"><polygon class="cls-1" points="135.74 12.69 149.03 0.74 159.74 15.05 175.12 5.93 182.83 22.05 199.68 16.1 204.1 33.43 221.79 30.88 222.75 48.73 240.6 49.68 238.05 67.38 255.37 71.79 249.42 88.65 265.55 96.36 256.42 111.73 270.74 122.44 258.79 135.74 270.74 149.03 256.42 159.74 265.55 175.12 249.42 182.83 255.37 199.68 238.05 204.1 240.6 221.79 222.75 222.75 221.79 240.6 204.1 238.05 199.68 255.37 182.83 249.42 175.12 265.55 159.74 256.42 149.03 270.74 135.74 258.79 122.44 270.74 111.73 256.42 96.36 265.55 88.65 249.42 71.79 255.37 67.38 238.05 49.68 240.6 48.73 222.75 30.88 221.79 33.43 204.1 16.1 199.68 22.05 182.83 5.93 175.12 15.05 159.74 0.74 149.03 12.69 135.74 0.74 122.44 15.05 111.73 5.93 96.36 22.05 88.65 16.1 71.79 33.43 67.38 30.88 49.68 48.73 48.73 49.68 30.88 67.38 33.43 71.79 16.1 88.65 22.05 96.36 5.93 111.73 15.05 122.44 0.74 135.74 12.69"/><path d="M66.72,106a9.55,9.55,0,0,1-3.56,2.66,11.48,11.48,0,0,1-4.6.9,15.25,15.25,0,0,1-4.52-.62,13.73,13.73,0,0,1-4-2.08,35.68,35.68,0,0,1-4.56-4.14,15.23,15.23,0,0,1-6.2-2.74,14.35,14.35,0,0,1,2-24.26,17.28,17.28,0,0,1,8.12-1.88,17.27,17.27,0,0,1,8.12,1.88,14.56,14.56,0,0,1,5.24,20.9,14.33,14.33,0,0,1-6.6,5.22,3.62,3.62,0,0,0,1.22.9,3.54,3.54,0,0,0,1.38.26,5.43,5.43,0,0,0,3.88-1.8ZM46.22,82.32A6.16,6.16,0,0,0,44,84.76a8.57,8.57,0,0,0,0,7.4,6.15,6.15,0,0,0,2.26,2.44,6.31,6.31,0,0,0,6.36,0,6.16,6.16,0,0,0,2.26-2.44,8.57,8.57,0,0,0,0-7.4,6.17,6.17,0,0,0-2.26-2.44,6.31,6.31,0,0,0-6.36,0Z"/><path d="M92.28,80.58v21.88h-8.6v-2.08a7.74,7.74,0,0,1-2.8,1.86,9.32,9.32,0,0,1-3.4.62,9,9,0,0,1-6.68-2.54q-2.52-2.54-2.52-7.66V80.58h9V91.1A5.44,5.44,0,0,0,78,94.3a2.48,2.48,0,0,0,2.12,1,2.75,2.75,0,0,0,2.2-1.06,5.19,5.19,0,0,0,.88-3.34V80.58Z"/><path d="M114.88,82.76q3,2.58,3,7.94v11.76h-8.4V99.58q-1.56,3.28-6.2,3.28a9.9,9.9,0,0,1-4.42-.9,6.34,6.34,0,0,1-3.7-5.9,5.56,5.56,0,0,1,2.48-4.92q2.48-1.68,7.52-1.68h3.64q-.44-2.56-4.12-2.56a10.33,10.33,0,0,0-3,.46,8.45,8.45,0,0,0-2.6,1.26l-2.88-6a15.89,15.89,0,0,1,4.54-1.82,21.94,21.94,0,0,1,5.3-.66Q111.84,80.18,114.88,82.76ZM107.76,96.9a3,3,0,0,0,1.12-1.56V93.82h-2.24q-2.76,0-2.76,1.84a1.59,1.59,0,0,0,.58,1.26,2.33,2.33,0,0,0,1.58.5A3,3,0,0,0,107.76,96.9Z"/><path d="M143.54,82.62Q146,85.06,146,90v12.48h-9V91.54q0-3.76-2.68-3.76a3.13,3.13,0,0,0-2.46,1.06,5,5,0,0,0-.94,3.34v10.28h-9V80.58h8.6v2.16a8.35,8.35,0,0,1,3-1.92,10.15,10.15,0,0,1,3.64-.64A8.83,8.83,0,0,1,143.54,82.62Z"/><path d="M166,101.7a11.29,11.29,0,0,1-5.56,1.16q-4.6,0-7.08-2.22T150.92,94v-5.6h-3v-6.6h3V75.66h9v6.12h4.48v6.6H160V93.9a2.2,2.2,0,0,0,.52,1.56,1.77,1.77,0,0,0,1.36.56,3.54,3.54,0,0,0,2-.6Z"/><path d="M192.24,80.58v21.88h-8.6v-2.08a7.74,7.74,0,0,1-2.8,1.86,9.32,9.32,0,0,1-3.4.62,9,9,0,0,1-6.68-2.54q-2.52-2.54-2.52-7.66V80.58h9V91.1a5.44,5.44,0,0,0,.72,3.2,2.48,2.48,0,0,0,2.12,1,2.75,2.75,0,0,0,2.2-1.06,5.19,5.19,0,0,0,.88-3.34V80.58Z"/><path d="M231.54,82.62q2.38,2.44,2.38,7.36v12.48h-9V91.54q0-3.76-2.44-3.76a2.52,2.52,0,0,0-2.06,1,4.8,4.8,0,0,0-.78,3v10.68h-9V91.54q0-3.76-2.44-3.76a2.52,2.52,0,0,0-2.06,1,4.8,4.8,0,0,0-.78,3v10.68h-9V80.58h8.6v2a8.4,8.4,0,0,1,6.2-2.44,9.27,9.27,0,0,1,4,.82,6.94,6.94,0,0,1,2.88,2.5,8.9,8.9,0,0,1,3.2-2.46,9.79,9.79,0,0,1,4.12-.86A8.45,8.45,0,0,1,231.54,82.62Z"/><path d="M53.58,114.46l-11.84,28H32.46l-11.84-28H30.78l6.68,16.36,6.84-16.36Z"/><path d="M55.6,117.52a4.38,4.38,0,0,1,0-6.6,5.8,5.8,0,0,1,3.94-1.3,6,6,0,0,1,4,1.24,4,4,0,0,1,1.48,3.2,4.41,4.41,0,0,1-1.48,3.42,5.67,5.67,0,0,1-4,1.34A5.8,5.8,0,0,1,55.6,117.52ZM55,120.58h9v21.88H55Z"/><path d="M88,121.56a10,10,0,0,1,3.84,4,13.35,13.35,0,0,1,0,12,10,10,0,0,1-3.84,4,10.52,10.52,0,0,1-5.3,1.38q-4,0-6-2.2v1.8h-8.6V112.78h9v9.28a7.63,7.63,0,0,1,5.56-1.88A10.52,10.52,0,0,1,88,121.56Zm-4.9,13.12a4.67,4.67,0,0,0,1-3.18,4.59,4.59,0,0,0-1-3.16,3.49,3.49,0,0,0-5.12,0,4.58,4.58,0,0,0-1,3.16,4.66,4.66,0,0,0,1,3.18,3.45,3.45,0,0,0,5.12,0Z"/><path d="M111.74,120.18v8a13.76,13.76,0,0,0-2-.16q-4.64,0-4.64,4.72v9.72h-9V120.58h8.6v2.36Q107.06,120.18,111.74,120.18Z"/><path d="M132.7,122.76q3,2.58,3,7.94v11.76h-8.4v-2.88q-1.56,3.28-6.2,3.28a9.9,9.9,0,0,1-4.42-.9,6.34,6.34,0,0,1-3.7-5.9,5.56,5.56,0,0,1,2.48-4.92q2.48-1.68,7.52-1.68h3.64q-.44-2.56-4.12-2.56a10.35,10.35,0,0,0-3,.46,8.46,8.46,0,0,0-2.6,1.26l-2.88-6a15.88,15.88,0,0,1,4.54-1.82,21.92,21.92,0,0,1,5.3-.66Q129.66,120.18,132.7,122.76Zm-7.12,14.14a3,3,0,0,0,1.12-1.56v-1.52h-2.24q-2.76,0-2.76,1.84a1.59,1.59,0,0,0,.58,1.26,2.33,2.33,0,0,0,1.58.5A3,3,0,0,0,125.58,136.9Z"/><path d="M155.78,141.7a11.29,11.29,0,0,1-5.56,1.16q-4.6,0-7.08-2.22T140.66,134v-5.6h-3v-6.6h3v-6.12h9v6.12h4.48v6.6H149.7v5.52a2.2,2.2,0,0,0,.52,1.56,1.77,1.77,0,0,0,1.36.56,3.54,3.54,0,0,0,2-.6Z"/><path d="M158.64,117.52a4.38,4.38,0,0,1,0-6.6,5.8,5.8,0,0,1,3.94-1.3,6,6,0,0,1,4,1.24,4,4,0,0,1,1.48,3.2,4.41,4.41,0,0,1-1.48,3.42,5.68,5.68,0,0,1-4,1.34A5.8,5.8,0,0,1,158.64,117.52Zm-.58,3.06h9v21.88h-9Z"/><path d="M176.12,141.4a11.23,11.23,0,0,1-4.54-4,11.29,11.29,0,0,1,0-11.72,11.1,11.1,0,0,1,4.54-4,15.66,15.66,0,0,1,13.12,0,11,11,0,0,1,4.52,4,11.41,11.41,0,0,1,0,11.72,11.08,11.08,0,0,1-4.52,4,15.47,15.47,0,0,1-13.12,0Zm9.1-6.72a4.67,4.67,0,0,0,1-3.18,4.59,4.59,0,0,0-1-3.16,3.49,3.49,0,0,0-5.12,0,4.58,4.58,0,0,0-1,3.16,4.66,4.66,0,0,0,1,3.18,3.45,3.45,0,0,0,5.12,0Z"/><path d="M219.92,122.62q2.46,2.44,2.46,7.36v12.48h-9V131.54q0-3.76-2.68-3.76a3.13,3.13,0,0,0-2.46,1.06,5,5,0,0,0-.94,3.34v10.28h-9V120.58h8.6v2.16a8.36,8.36,0,0,1,3-1.92,10.16,10.16,0,0,1,3.64-.64A8.83,8.83,0,0,1,219.92,122.62Z"/><path d="M229.34,142.26a15.83,15.83,0,0,1-4.4-1.56l2.48-6a13,13,0,0,0,3.6,1.44,16.62,16.62,0,0,0,4,.52,6.29,6.29,0,0,0,2.18-.26.84.84,0,0,0,.62-.78q0-.52-.78-.72a21.2,21.2,0,0,0-2.54-.4,33.43,33.43,0,0,1-4.56-.82,7.15,7.15,0,0,1-3.3-1.94,5.62,5.62,0,0,1-1.42-4.12,6.11,6.11,0,0,1,1.28-3.8,8.62,8.62,0,0,1,3.82-2.68,16.66,16.66,0,0,1,6.1-1,25.56,25.56,0,0,1,4.86.46,14.83,14.83,0,0,1,4.06,1.34l-2.48,6a12.8,12.8,0,0,0-6.32-1.6q-3,0-3,1,0,.52.8.74a18.6,18.6,0,0,0,2.52.42,30.74,30.74,0,0,1,4.54.84,7.31,7.31,0,0,1,3.28,2,5.62,5.62,0,0,1,1.42,4.12,6,6,0,0,1-1.28,3.72,8.62,8.62,0,0,1-3.84,2.68,17.06,17.06,0,0,1-6.2,1A25.53,25.53,0,0,1,229.34,142.26Z"/><path d="M106.95,166.07a23.82,23.82,0,0,1,0-12.36,15.93,15.93,0,0,1,2.38-5.05h5.18a24.22,24.22,0,0,0-2.34,5.58,22.18,22.18,0,0,0,0,11.3,24.2,24.2,0,0,0,2.34,5.58h-5.18A15.93,15.93,0,0,1,106.95,166.07Z"/><path d="M128.28,162.07v4.39H114.82V163l6.07-5.62a5,5,0,0,0,1.06-1.27,2.29,2.29,0,0,0,.26-1,1.19,1.19,0,0,0-.42-1,1.86,1.86,0,0,0-1.21-.35,2.73,2.73,0,0,0-1.44.41,2.68,2.68,0,0,0-1,1.15l-4.27-2.14a7,7,0,0,1,2.81-2.84,10,10,0,0,1,8-.4,5.52,5.52,0,0,1,2.4,1.85,4.61,4.61,0,0,1,.86,2.76,5.89,5.89,0,0,1-.59,2.6,9.76,9.76,0,0,1-2.29,2.75l-2.4,2.18Z"/><path d="M135.94,146.26h4.8l-7.92,22.61H128Z"/><path d="M153.67,162.07v4.39H140.21V163l6.07-5.62a5,5,0,0,0,1.06-1.27,2.3,2.3,0,0,0,.26-1,1.19,1.19,0,0,0-.42-1,1.86,1.86,0,0,0-1.21-.35,2.73,2.73,0,0,0-1.44.41,2.68,2.68,0,0,0-1,1.15l-4.27-2.14a7,7,0,0,1,2.81-2.84,10,10,0,0,1,8-.4,5.51,5.51,0,0,1,2.4,1.85,4.6,4.6,0,0,1,.86,2.76,5.89,5.89,0,0,1-.59,2.6,9.77,9.77,0,0,1-2.29,2.75l-2.4,2.18Z"/><path d="M153.77,171.12a24.24,24.24,0,0,0,2.34-5.58,22.18,22.18,0,0,0,0-11.3,24.26,24.26,0,0,0-2.34-5.58H159a16,16,0,0,1,2.38,5.05,23.82,23.82,0,0,1,0,12.36,16,16,0,0,1-2.38,5.05Z"/><path d="M93.89,200H85.65v-1.55l4.1-3.78a9.09,9.09,0,0,0,1.48-1.72,3.33,3.33,0,0,0,.59-1.83v-.22a2.47,2.47,0,0,0-.58-1.7,2.21,2.21,0,0,0-1.75-.65,2.87,2.87,0,0,0-1,.16,2.3,2.3,0,0,0-.75.45,2.52,2.52,0,0,0-.52.67,4.17,4.17,0,0,0-.33.84l-1.35-.52A5.29,5.29,0,0,1,86,189a3.65,3.65,0,0,1,1.94-1.6,4.61,4.61,0,0,1,1.59-.25,4.65,4.65,0,0,1,1.64.27,3.24,3.24,0,0,1,2,1.91,4,4,0,0,1,.26,1.47,4.36,4.36,0,0,1-.21,1.37,5.32,5.32,0,0,1-.57,1.2,7.25,7.25,0,0,1-.87,1.11q-.51.54-1.11,1.08l-3.38,3h6.61Z"/><path d="M104.06,188.73H98.56l-.36,4.79h.13a4,4,0,0,1,1-1,2.78,2.78,0,0,1,1.56-.38,4,4,0,0,1,1.49.27,3.51,3.51,0,0,1,1.19.76,3.4,3.4,0,0,1,.78,1.21,4.5,4.5,0,0,1,.28,1.64,4.76,4.76,0,0,1-.29,1.68,3.65,3.65,0,0,1-.84,1.31,3.82,3.82,0,0,1-1.33.86,4.84,4.84,0,0,1-1.77.31A5,5,0,0,1,99,200a4.07,4.07,0,0,1-1.07-.48,4.31,4.31,0,0,1-.82-.68,7.09,7.09,0,0,1-.64-.79l1.13-.86a5.56,5.56,0,0,0,.5.68,2.92,2.92,0,0,0,.58.52,2.43,2.43,0,0,0,.73.33,3.66,3.66,0,0,0,1,.12,2.61,2.61,0,0,0,2-.69,2.66,2.66,0,0,0,.67-1.93V196a2.66,2.66,0,0,0-.67-1.93,2.62,2.62,0,0,0-2-.69,2.52,2.52,0,0,0-1.36.32,4.45,4.45,0,0,0-.89.75l-1.28-.18.45-6.91h6.73Z"/><path d="M106.06,202.68l4.7-16h1.3l-4.7,16Z"/><path d="M118.19,200.18a3.55,3.55,0,0,1-3.29-1.71,11.59,11.59,0,0,1,0-9.58,4,4,0,0,1,6.57,0,11.59,11.59,0,0,1,0,9.58A3.55,3.55,0,0,1,118.19,200.18Zm0-1.33a2.46,2.46,0,0,0,1.26-.3,2.33,2.33,0,0,0,.85-.86,4.29,4.29,0,0,0,.48-1.31,8.45,8.45,0,0,0,.15-1.67v-2a8.44,8.44,0,0,0-.15-1.67,4.3,4.3,0,0,0-.48-1.31,2.35,2.35,0,0,0-.85-.86,2.76,2.76,0,0,0-2.52,0,2.35,2.35,0,0,0-.85.86,4.28,4.28,0,0,0-.48,1.31,8.37,8.37,0,0,0-.15,1.67v2a8.37,8.37,0,0,0,.15,1.67,4.26,4.26,0,0,0,.48,1.31,2.33,2.33,0,0,0,.85.86A2.46,2.46,0,0,0,118.19,198.84Z"/><path d="M126.74,200l4.81-11.27h-5.36V191h-1.35V187.4h8.24v1.33L128.36,200Z"/><path d="M134.56,202.68l4.7-16h1.3l-4.7,16Z"/><path d="M150.88,200h-8.24v-1.55l4.1-3.78a9.09,9.09,0,0,0,1.48-1.72,3.33,3.33,0,0,0,.59-1.83v-.22a2.47,2.47,0,0,0-.58-1.7,2.21,2.21,0,0,0-1.75-.65,2.87,2.87,0,0,0-1,.16,2.3,2.3,0,0,0-.75.45,2.52,2.52,0,0,0-.52.67,4.17,4.17,0,0,0-.33.84l-1.35-.52A5.29,5.29,0,0,1,143,189a3.65,3.65,0,0,1,1.94-1.6,4.61,4.61,0,0,1,1.59-.25,4.65,4.65,0,0,1,1.64.27,3.24,3.24,0,0,1,2,1.91,4,4,0,0,1,.26,1.47,4.36,4.36,0,0,1-.21,1.37,5.32,5.32,0,0,1-.57,1.2,7.25,7.25,0,0,1-.87,1.11q-.51.54-1.11,1.08l-3.38,3h6.61Z"/><path d="M157.49,200.18a3.55,3.55,0,0,1-3.29-1.71,11.59,11.59,0,0,1,0-9.58,4,4,0,0,1,6.57,0,11.59,11.59,0,0,1,0,9.58A3.55,3.55,0,0,1,157.49,200.18Zm0-1.33a2.46,2.46,0,0,0,1.26-.3,2.33,2.33,0,0,0,.85-.86,4.29,4.29,0,0,0,.48-1.31,8.45,8.45,0,0,0,.15-1.67v-2a8.44,8.44,0,0,0-.15-1.67,4.3,4.3,0,0,0-.48-1.31,2.35,2.35,0,0,0-.85-.86,2.76,2.76,0,0,0-2.52,0,2.35,2.35,0,0,0-.85.86,4.28,4.28,0,0,0-.48,1.31,8.37,8.37,0,0,0-.15,1.67v2a8.37,8.37,0,0,0,.15,1.67,4.26,4.26,0,0,0,.48,1.31,2.33,2.33,0,0,0,.85.86A2.46,2.46,0,0,0,157.49,198.84Z"/><path d="M172.48,200h-8.24v-1.55l4.1-3.78a9.09,9.09,0,0,0,1.48-1.72,3.33,3.33,0,0,0,.59-1.83v-.22a2.47,2.47,0,0,0-.58-1.7,2.21,2.21,0,0,0-1.75-.65,2.87,2.87,0,0,0-1,.16,2.3,2.3,0,0,0-.75.45,2.52,2.52,0,0,0-.52.67,4.17,4.17,0,0,0-.33.84l-1.35-.52a5.29,5.29,0,0,1,.5-1.09,3.65,3.65,0,0,1,1.94-1.6,4.61,4.61,0,0,1,1.59-.25,4.65,4.65,0,0,1,1.64.27,3.24,3.24,0,0,1,2,1.91,4,4,0,0,1,.26,1.47,4.36,4.36,0,0,1-.21,1.37,5.32,5.32,0,0,1-.57,1.2,7.25,7.25,0,0,1-.87,1.11q-.51.54-1.11,1.08l-3.38,3h6.61Z"/><path d="M179.09,200.18a3.55,3.55,0,0,1-3.29-1.71,11.59,11.59,0,0,1,0-9.58,4,4,0,0,1,6.57,0,11.59,11.59,0,0,1,0,9.58A3.55,3.55,0,0,1,179.09,200.18Zm0-1.33a2.46,2.46,0,0,0,1.26-.3,2.33,2.33,0,0,0,.85-.86,4.29,4.29,0,0,0,.48-1.31,8.45,8.45,0,0,0,.15-1.67v-2a8.44,8.44,0,0,0-.15-1.67,4.3,4.3,0,0,0-.48-1.31,2.35,2.35,0,0,0-.85-.86,2.76,2.76,0,0,0-2.52,0,2.35,2.35,0,0,0-.85.86,4.28,4.28,0,0,0-.48,1.31,8.37,8.37,0,0,0-.15,1.67v2a8.37,8.37,0,0,0,.15,1.67,4.26,4.26,0,0,0,.48,1.31,2.33,2.33,0,0,0,.85.86A2.46,2.46,0,0,0,179.09,198.84Z"/><path d="M111.75,221.56v-1.33h3.51V210.11h-.13l-3.17,3-.88-1,3.33-3.11h2.36v11.23H120v1.33Z"/><path d="M126.37,221.78a5.79,5.79,0,0,1-1.89-.28,4,4,0,0,1-1.36-.76,3.14,3.14,0,0,1-.83-1.15,3.68,3.68,0,0,1-.28-1.44,2.9,2.9,0,0,1,.7-2.05,3.79,3.79,0,0,1,1.84-1.06v-.14a3.27,3.27,0,0,1-1.58-1.11,3,3,0,0,1-.58-1.84,2.81,2.81,0,0,1,1-2.29,5.46,5.46,0,0,1,5.87,0,2.81,2.81,0,0,1,1,2.29,3,3,0,0,1-.58,1.84,3.27,3.27,0,0,1-1.58,1.11V215a3.79,3.79,0,0,1,1.84,1.06,2.89,2.89,0,0,1,.7,2.05,3.68,3.68,0,0,1-.28,1.44,3.15,3.15,0,0,1-.83,1.15,4,4,0,0,1-1.36.76A5.79,5.79,0,0,1,126.37,221.78Zm0-1.33a3.15,3.15,0,0,0,2-.58,2,2,0,0,0,.72-1.66v-.38a2,2,0,0,0-.72-1.66,3.84,3.84,0,0,0-4.07,0,2,2,0,0,0-.72,1.66v.38a2,2,0,0,0,.72,1.66A3.15,3.15,0,0,0,126.37,220.44Zm0-6.12a2.79,2.79,0,0,0,1.8-.5,1.79,1.79,0,0,0,.61-1.47v-.27a1.79,1.79,0,0,0-.61-1.47,3.48,3.48,0,0,0-3.6,0,1.79,1.79,0,0,0-.61,1.47v.27a1.79,1.79,0,0,0,.61,1.47A2.79,2.79,0,0,0,126.37,214.32Z"/><path d="M134.39,214.38a1,1,0,0,1-1.1-1v-.23a1.1,1.1,0,1,1,2.2,0v.23a1,1,0,0,1-1.1,1Zm0,7.4a1,1,0,0,1-1.1-1v-.23a1.1,1.1,0,1,1,2.2,0v.23a1,1,0,0,1-1.1,1Z"/><path d="M141.72,214.29a2.76,2.76,0,0,0,1.92-.58,1.93,1.93,0,0,0,.64-1.5v-.13a1.77,1.77,0,0,0-.62-1.48,2.55,2.55,0,0,0-1.63-.49,2.74,2.74,0,0,0-1.58.42,3.29,3.29,0,0,0-1,1.14l-1.12-.86a5.08,5.08,0,0,1,.57-.74,3.75,3.75,0,0,1,.78-.65,4.21,4.21,0,0,1,1-.46,4.72,4.72,0,0,1,1.35-.18,5.3,5.3,0,0,1,1.49.21,3.58,3.58,0,0,1,1.21.61,2.91,2.91,0,0,1,.81,1,3.21,3.21,0,0,1,.11,2.44,2.7,2.7,0,0,1-.51.84,3.05,3.05,0,0,1-.77.61,3.7,3.7,0,0,1-.94.38v.07a4,4,0,0,1,1,.35,3.09,3.09,0,0,1,.85.63,3,3,0,0,1,.59.94,3.31,3.31,0,0,1,.22,1.26,3.58,3.58,0,0,1-.31,1.49,3.28,3.28,0,0,1-.86,1.16,4.06,4.06,0,0,1-1.35.75,5.39,5.39,0,0,1-1.75.27,5.33,5.33,0,0,1-1.44-.18,4.3,4.3,0,0,1-1.12-.48,4.61,4.61,0,0,1-.85-.68,6.13,6.13,0,0,1-.66-.79l1.13-.86a4.57,4.57,0,0,0,.51.68,3,3,0,0,0,.62.52,2.77,2.77,0,0,0,.77.33,3.87,3.87,0,0,0,1,.12,3,3,0,0,0,2-.61,2.19,2.19,0,0,0,.68-1.73V218a2.19,2.19,0,0,0-.68-1.73,3,3,0,0,0-2-.61h-1.48v-1.33Z"/><path d="M153.22,221.78a3.55,3.55,0,0,1-3.29-1.71,11.59,11.59,0,0,1,0-9.58,4,4,0,0,1,6.57,0,11.59,11.59,0,0,1,0,9.58A3.55,3.55,0,0,1,153.22,221.78Zm0-1.33a2.46,2.46,0,0,0,1.26-.3,2.33,2.33,0,0,0,.85-.86,4.29,4.29,0,0,0,.48-1.31,8.45,8.45,0,0,0,.15-1.67v-2a8.44,8.44,0,0,0-.15-1.67,4.3,4.3,0,0,0-.48-1.31,2.35,2.35,0,0,0-.85-.86,2.76,2.76,0,0,0-2.52,0,2.35,2.35,0,0,0-.85.86,4.28,4.28,0,0,0-.48,1.31,8.37,8.37,0,0,0-.15,1.67v2a8.37,8.37,0,0,0,.15,1.67,4.26,4.26,0,0,0,.48,1.31,2.33,2.33,0,0,0,.85.86A2.46,2.46,0,0,0,153.22,220.44Z"/></g></g></svg>