<svg xmlns="http://www.w3.org/2000/svg" viewBox="0 0 271.48 271.48"><defs><style>.cls-1{fill:#2e6eeb;stroke:#000;stroke-miterlimit:10;}</style></defs><title>Fichier 2</title><g id="Calque_2" data-name="Calque 2"><g id="Calque_1-2" data-name="Calque 1"><polygon class="cls-1" points="135.74 12.69 149.03 0.74 159.74 15.05 175.12 5.93 182.83 22.05 199.68 16.1 204.1 33.43 221.79 30.88 222.75 48.73 240.6 49.68 238.05 67.38 255.37 71.79 249.42 88.65 265.55 96.36 256.42 111.73 270.74 122.44 258.79 135.74 270.74 149.03 256.42 159.74 265.55 175.12 249.42 182.83 255.37 199.68 238.05 204.1 240.6 221.79 222.75 222.75 221.79 240.6 204.1 238.05 199.68 255.37 182.83 249.42 175.12 265.55 159.74 256.42 149.03 270.74 135.74 258.79 122.44 270.74 111.73 256.42 96.36 265.55 88.65 249.42 71.79 255.37 67.38 238.05 49.68 240.6 48.73 222.75 30.88 221.79 33.43 204.1 16.1 199.68 22.05 182.83 5.93 175.12 15.05 159.74 0.74 149.03 12.69 135.74 0.74 122.44 15.05 111.73 5.93 96.36 22.05 88.65 16.1 71.79 33.43 67.38 30.88 49.68 48.73 48.73 49.68 30.88 67.38 33.43 71.79 16.1 88.65 22.05 96.36 5.93 111.73 15.05 122.44 0.74 135.74 12.69"/><path d="M101,54.78h9.44v28H101Z"/><path d="M138.32,75.66v7.12H115v-28H137.8V61.9H124.32v3.28h11.84V72H124.32v3.68Z"/><path d="M142,54.78h13.8a19,19,0,0,1,8.26,1.7,12.94,12.94,0,0,1,5.56,4.86,15,15,0,0,1,0,14.88A12.93,12.93,0,0,1,164,81.08a19,19,0,0,1-8.26,1.7H142Zm13.4,20.64a6.74,6.74,0,0,0,4.86-1.74,6.46,6.46,0,0,0,1.82-4.9,6.46,6.46,0,0,0-1.82-4.9,6.74,6.74,0,0,0-4.86-1.74h-4V75.42Z"/><path d="M68.32,126.3A9.55,9.55,0,0,1,64.76,129a11.47,11.47,0,0,1-4.6.9,15.25,15.25,0,0,1-4.52-.62,13.73,13.73,0,0,1-4-2.08A35.68,35.68,0,0,1,47.08,123a15.22,15.22,0,0,1-6.2-2.74,14.35,14.35,0,0,1,2-24.26A17.27,17.27,0,0,1,51,94.14,17.27,17.27,0,0,1,59.12,96a14.56,14.56,0,0,1,5.24,20.9,14.32,14.32,0,0,1-6.6,5.22A3.63,3.63,0,0,0,59,123a3.54,3.54,0,0,0,1.38.26,5.43,5.43,0,0,0,3.88-1.8Zm-20.5-23.66a6.17,6.17,0,0,0-2.26,2.44,8.57,8.57,0,0,0,0,7.4,6.15,6.15,0,0,0,2.26,2.44,6.31,6.31,0,0,0,6.36,0,6.16,6.16,0,0,0,2.26-2.44,8.57,8.57,0,0,0,0-7.4,6.17,6.17,0,0,0-2.26-2.44,6.31,6.31,0,0,0-6.36,0Z"/><path d="M93.88,100.9v21.88h-8.6V120.7a7.74,7.74,0,0,1-2.8,1.86,9.31,9.31,0,0,1-3.4.62,9,9,0,0,1-6.68-2.54q-2.52-2.54-2.52-7.66V100.9h9v10.52a5.45,5.45,0,0,0,.72,3.2,2.48,2.48,0,0,0,2.12,1,2.75,2.75,0,0,0,2.2-1.06,5.19,5.19,0,0,0,.88-3.34V100.9Z"/><path d="M116.48,103.08q3,2.58,3,7.94v11.76h-8.4V119.9q-1.56,3.28-6.2,3.28a9.9,9.9,0,0,1-4.42-.9,6.34,6.34,0,0,1-3.7-5.9,5.56,5.56,0,0,1,2.48-4.92q2.48-1.68,7.52-1.68h3.64q-.44-2.56-4.12-2.56a10.35,10.35,0,0,0-3,.46,8.46,8.46,0,0,0-2.6,1.26l-2.88-6a15.87,15.87,0,0,1,4.54-1.82,21.92,21.92,0,0,1,5.3-.66Q113.44,100.5,116.48,103.08Zm-7.12,14.14a3,3,0,0,0,1.12-1.56v-1.52h-2.24q-2.76,0-2.76,1.84a1.59,1.59,0,0,0,.58,1.26,2.33,2.33,0,0,0,1.58.5A3,3,0,0,0,109.36,117.22Z"/><path d="M145.14,102.94q2.46,2.44,2.46,7.36v12.48h-9V111.86q0-3.76-2.68-3.76a3.13,3.13,0,0,0-2.46,1.06,5,5,0,0,0-.94,3.34v10.28h-9V100.9H132v2.16a8.36,8.36,0,0,1,3-1.92,10.16,10.16,0,0,1,3.64-.64A8.83,8.83,0,0,1,145.14,102.94Z"/><path d="M167.64,122a11.29,11.29,0,0,1-5.56,1.16q-4.6,0-7.08-2.22t-2.48-6.66v-5.6h-3v-6.6h3V96h9v6.12H166v6.6h-4.48v5.52a2.2,2.2,0,0,0,.52,1.56,1.77,1.77,0,0,0,1.36.56,3.54,3.54,0,0,0,2-.6Z"/><path d="M193.84,100.9v21.88h-8.6V120.7a7.74,7.74,0,0,1-2.8,1.86,9.31,9.31,0,0,1-3.4.62,9,9,0,0,1-6.68-2.54q-2.52-2.54-2.52-7.66V100.9h9v10.52a5.45,5.45,0,0,0,.72,3.2,2.48,2.48,0,0,0,2.12,1,2.75,2.75,0,0,0,2.2-1.06,5.19,5.19,0,0,0,.88-3.34V100.9Z"/><path d="M233.14,102.94q2.38,2.44,2.38,7.36v12.48h-9V111.86q0-3.76-2.44-3.76a2.52,2.52,0,0,0-2.06,1,4.8,4.8,0,0,0-.78,3v10.68h-9V111.86q0-3.76-2.44-3.76a2.52,2.52,0,0,0-2.06,1,4.81,4.81,0,0,0-.78,3v10.68h-9V100.9h8.6v2a8.4,8.4,0,0,1,6.2-2.44,9.27,9.27,0,0,1,4,.82,6.94,6.94,0,0,1,2.88,2.5,8.89,8.89,0,0,1,3.2-2.46,9.79,9.79,0,0,1,4.12-.86A8.45,8.45,0,0,1,233.14,102.94Z"/><path d="M75.24,157.9H64.6l-1.88,4.88h-9.6l12.24-28h9.28l12.24,28H77.12Zm-2.6-6.8-2.72-7-2.72,7Z"/><path d="M124.24,140.9l-7.6,21.88h-8.8l-3.32-10.12-3.44,10.12h-8.8l-7.6-21.88h8.56L97,152.46l3.92-11.56h7.68l3.8,11.68,3.92-11.68Z"/><path d="M143.8,143.08q3,2.58,3,7.94v11.76h-8.4V159.9q-1.56,3.28-6.2,3.28a9.9,9.9,0,0,1-4.42-.9,6.34,6.34,0,0,1-3.7-5.9,5.56,5.56,0,0,1,2.48-4.92q2.48-1.68,7.52-1.68h3.64q-.44-2.56-4.12-2.56a10.35,10.35,0,0,0-3,.46,8.46,8.46,0,0,0-2.6,1.26l-2.88-6a15.87,15.87,0,0,1,4.54-1.82,21.92,21.92,0,0,1,5.3-.66Q140.76,140.5,143.8,143.08Zm-7.12,14.14a3,3,0,0,0,1.12-1.56v-1.52h-2.24q-2.76,0-2.76,1.84a1.59,1.59,0,0,0,.58,1.26,2.33,2.33,0,0,0,1.58.5A3,3,0,0,0,136.68,157.22Z"/><path d="M166.44,140.5v8a13.75,13.75,0,0,0-2-.16q-4.64,0-4.64,4.72v9.72h-9V140.9h8.6v2.36Q161.76,140.5,166.44,140.5Z"/><path d="M193,133.1v29.68h-8.6V161q-2,2.2-6,2.2a10.52,10.52,0,0,1-5.3-1.38,10,10,0,0,1-3.84-4,13.35,13.35,0,0,1,0-12,10,10,0,0,1,3.84-4,10.52,10.52,0,0,1,5.3-1.38,7.63,7.63,0,0,1,5.56,1.88V133.1ZM183.12,155a4.66,4.66,0,0,0,1-3.18,4.59,4.59,0,0,0-1-3.16,3.49,3.49,0,0,0-5.12,0,4.58,4.58,0,0,0-1,3.16,4.66,4.66,0,0,0,1,3.18,3.44,3.44,0,0,0,5.12,0Z"/><path d="M200,162.58a15.83,15.83,0,0,1-4.4-1.56l2.48-6a13,13,0,0,0,3.6,1.44,16.63,16.63,0,0,0,4,.52,6.28,6.28,0,0,0,2.18-.26.84.84,0,0,0,.62-.78q0-.52-.78-.72a21.17,21.17,0,0,0-2.54-.4,33.44,33.44,0,0,1-4.56-.82,7.15,7.15,0,0,1-3.3-1.94A5.62,5.62,0,0,1,196,148a6.11,6.11,0,0,1,1.28-3.8,8.62,8.62,0,0,1,3.82-2.68,16.66,16.66,0,0,1,6.1-1A25.56,25.56,0,0,1,212,141a14.83,14.83,0,0,1,4.06,1.34l-2.48,6a12.8,12.8,0,0,0-6.32-1.6q-3,0-3,1,0,.52.8.74a18.6,18.6,0,0,0,2.52.42,30.74,30.74,0,0,1,4.54.84,7.32,7.32,0,0,1,3.28,2,5.62,5.62,0,0,1,1.42,4.12,6,6,0,0,1-1.28,3.72,8.62,8.62,0,0,1-3.84,2.68,17.06,17.06,0,0,1-6.2,1A25.52,25.52,0,0,1,200,162.58Z"/><path d="M97.1,200H88.85v-1.55l4.1-3.78a9.09,9.09,0,0,0,1.48-1.72,3.33,3.33,0,0,0,.59-1.83v-.22a2.47,2.47,0,0,0-.58-1.7,2.21,2.21,0,0,0-1.75-.65,2.87,2.87,0,0,0-1,.16,2.3,2.3,0,0,0-.75.45,2.52,2.52,0,0,0-.52.67,4.17,4.17,0,0,0-.33.84l-1.35-.52a5.29,5.29,0,0,1,.5-1.09,3.65,3.65,0,0,1,1.94-1.6,4.61,4.61,0,0,1,1.59-.25,4.65,4.65,0,0,1,1.64.27,3.24,3.24,0,0,1,2,1.91,4,4,0,0,1,.26,1.47,4.36,4.36,0,0,1-.21,1.37,5.32,5.32,0,0,1-.57,1.2A7.25,7.25,0,0,1,95,194.5q-.51.54-1.11,1.08l-3.38,3H97.1Z"/><path d="M103,192.69a2.76,2.76,0,0,0,1.92-.58,1.93,1.93,0,0,0,.64-1.5v-.13a1.77,1.77,0,0,0-.62-1.48,2.55,2.55,0,0,0-1.63-.49,2.74,2.74,0,0,0-1.58.42,3.29,3.29,0,0,0-1,1.14l-1.12-.86a5.08,5.08,0,0,1,.57-.74,3.75,3.75,0,0,1,.78-.65,4.21,4.21,0,0,1,1-.46,4.72,4.72,0,0,1,1.35-.18,5.3,5.3,0,0,1,1.49.21,3.58,3.58,0,0,1,1.21.61,2.91,2.91,0,0,1,.81,1,3.21,3.21,0,0,1,.11,2.44,2.7,2.7,0,0,1-.51.84,3.05,3.05,0,0,1-.77.61,3.7,3.7,0,0,1-.94.38v.07a4,4,0,0,1,1,.35,3.09,3.09,0,0,1,.85.63,3,3,0,0,1,.59.94,3.31,3.31,0,0,1,.22,1.26,3.58,3.58,0,0,1-.31,1.49,3.28,3.28,0,0,1-.86,1.16,4.06,4.06,0,0,1-1.35.75,5.39,5.39,0,0,1-1.75.27,5.33,5.33,0,0,1-1.44-.18,4.3,4.3,0,0,1-1.12-.48,4.61,4.61,0,0,1-.85-.68,6.13,6.13,0,0,1-.66-.79l1.13-.86a4.57,4.57,0,0,0,.51.68,3,3,0,0,0,.62.52,2.77,2.77,0,0,0,.77.33,3.87,3.87,0,0,0,1,.12,3,3,0,0,0,2-.61,2.19,2.19,0,0,0,.68-1.73v-.15a2.19,2.19,0,0,0-.68-1.73,3,3,0,0,0-2-.61h-1.48v-1.33Z"/><path d="M109.27,202.68l4.7-16h1.3l-4.7,16Z"/><path d="M121.4,200.18a3.55,3.55,0,0,1-3.29-1.71,11.59,11.59,0,0,1,0-9.58,4,4,0,0,1,6.57,0,11.59,11.59,0,0,1,0,9.58A3.55,3.55,0,0,1,121.4,200.18Zm0-1.33a2.46,2.46,0,0,0,1.26-.3,2.33,2.33,0,0,0,.85-.86,4.29,4.29,0,0,0,.48-1.31,8.45,8.45,0,0,0,.15-1.67v-2A8.44,8.44,0,0,0,124,191a4.3,4.3,0,0,0-.48-1.31,2.35,2.35,0,0,0-.85-.86,2.76,2.76,0,0,0-2.52,0,2.35,2.35,0,0,0-.85.86,4.28,4.28,0,0,0-.48,1.31,8.37,8.37,0,0,0-.15,1.67v2a8.37,8.37,0,0,0,.15,1.67,4.26,4.26,0,0,0,.48,1.31,2.33,2.33,0,0,0,.85.86A2.46,2.46,0,0,0,121.4,198.84Z"/><path d="M129.95,200l4.81-11.27h-5.36V191H128V187.4h8.24v1.33L131.57,200Z"/><path d="M137.76,202.68l4.7-16h1.3l-4.7,16Z"/><path d="M154.08,200h-8.24v-1.55l4.1-3.78a9.09,9.09,0,0,0,1.48-1.72,3.33,3.33,0,0,0,.59-1.83v-.22a2.47,2.47,0,0,0-.58-1.7,2.21,2.21,0,0,0-1.75-.65,2.87,2.87,0,0,0-1,.16,2.3,2.3,0,0,0-.75.45,2.52,2.52,0,0,0-.52.67,4.17,4.17,0,0,0-.33.84l-1.35-.52a5.29,5.29,0,0,1,.5-1.09,3.65,3.65,0,0,1,1.94-1.6,4.61,4.61,0,0,1,1.59-.25,4.65,4.65,0,0,1,1.64.27,3.24,3.24,0,0,1,2,1.91,4,4,0,0,1,.26,1.47,4.36,4.36,0,0,1-.21,1.37,5.32,5.32,0,0,1-.57,1.2,7.25,7.25,0,0,1-.87,1.11q-.51.54-1.11,1.08l-3.38,3h6.61Z"/><path d="M160.69,200.18a3.55,3.55,0,0,1-3.29-1.71,11.59,11.59,0,0,1,0-9.58,4,4,0,0,1,6.57,0,11.59,11.59,0,0,1,0,9.58A3.55,3.55,0,0,1,160.69,200.18Zm0-1.33a2.46,2.46,0,0,0,1.26-.3,2.33,2.33,0,0,0,.85-.86,4.29,4.29,0,0,0,.48-1.31,8.45,8.45,0,0,0,.15-1.67v-2a8.44,8.44,0,0,0-.15-1.67,4.3,4.3,0,0,0-.48-1.31,2.35,2.35,0,0,0-.85-.86,2.76,2.76,0,0,0-2.52,0,2.35,2.35,0,0,0-.85.86,4.28,4.28,0,0,0-.48,1.31,8.37,8.37,0,0,0-.15,1.67v2a8.37,8.37,0,0,0,.15,1.67,4.26,4.26,0,0,0,.48,1.31,2.33,2.33,0,0,0,.85.86A2.46,2.46,0,0,0,160.69,198.84Z"/><path d="M175.68,200h-8.24v-1.55l4.1-3.78a9.09,9.09,0,0,0,1.48-1.72,3.33,3.33,0,0,0,.59-1.83v-.22a2.47,2.47,0,0,0-.58-1.7,2.21,2.21,0,0,0-1.75-.65,2.87,2.87,0,0,0-1,.16,2.3,2.3,0,0,0-.75.45,2.52,2.52,0,0,0-.52.67,4.17,4.17,0,0,0-.33.84l-1.35-.52a5.29,5.29,0,0,1,.5-1.09,3.65,3.65,0,0,1,1.94-1.6,4.61,4.61,0,0,1,1.59-.25,4.65,4.65,0,0,1,1.64.27,3.24,3.24,0,0,1,2,1.91,4,4,0,0,1,.26,1.47,4.36,4.36,0,0,1-.21,1.37,5.32,5.32,0,0,1-.57,1.2,7.25,7.25,0,0,1-.87,1.11q-.51.54-1.11,1.08l-3.38,3h6.61Z"/><path d="M182.29,200.18a3.55,3.55,0,0,1-3.29-1.71,11.59,11.59,0,0,1,0-9.58,4,4,0,0,1,6.57,0,11.59,11.59,0,0,1,0,9.58A3.55,3.55,0,0,1,182.29,200.18Zm0-1.33a2.46,2.46,0,0,0,1.26-.3,2.33,2.33,0,0,0,.85-.86,4.29,4.29,0,0,0,.48-1.31,8.45,8.45,0,0,0,.15-1.67v-2a8.44,8.44,0,0,0-.15-1.67,4.3,4.3,0,0,0-.48-1.31,2.35,2.35,0,0,0-.85-.86,2.76,2.76,0,0,0-2.52,0,2.35,2.35,0,0,0-.85.86,4.28,4.28,0,0,0-.48,1.31,8.37,8.37,0,0,0-.15,1.67v2a8.37,8.37,0,0,0,.15,1.67,4.26,4.26,0,0,0,.48,1.31,2.33,2.33,0,0,0,.85.86A2.46,2.46,0,0,0,182.29,198.84Z"/><path d="M115,221.56v-1.33h3.51V210.11h-.13l-3.17,3-.88-1,3.33-3.11H120v11.23h3.24v1.33Z"/><path d="M133.76,213.6a8.21,8.21,0,0,1-.41,2.64,10,10,0,0,1-1.07,2.25,10.68,10.68,0,0,1-1.45,1.8,9.74,9.74,0,0,1-1.55,1.27h-1.94q1-.74,1.8-1.44a10.82,10.82,0,0,0,1.39-1.46,8.83,8.83,0,0,0,1-1.63,9.69,9.69,0,0,0,.67-2l-.09,0a4.14,4.14,0,0,1-1.16,1.29,3.12,3.12,0,0,1-1.86.51,4,4,0,0,1-1.49-.27,3.26,3.26,0,0,1-1.17-.78,3.64,3.64,0,0,1-.76-1.22,4.39,4.39,0,0,1-.28-1.61,4.63,4.63,0,0,1,.3-1.69,3.77,3.77,0,0,1,.85-1.32,3.86,3.86,0,0,1,1.31-.86,4.59,4.59,0,0,1,1.72-.31,4.44,4.44,0,0,1,1.75.33,3.68,3.68,0,0,1,1.33,1,4.18,4.18,0,0,1,.84,1.52A6.58,6.58,0,0,1,133.76,213.6Zm-4.19,1.94a2.4,2.4,0,0,0,2.63-2.65v-.14a2.63,2.63,0,1,0-5.26,0v.14a2.4,2.4,0,0,0,2.63,2.65Z"/><path d="M137.6,214.38a1,1,0,0,1-1.1-1v-.23a1.1,1.1,0,1,1,2.2,0v.23a1,1,0,0,1-1.1,1Zm0,7.4a1,1,0,0,1-1.1-1v-.23a1.1,1.1,0,1,1,2.2,0v.23a1,1,0,0,1-1.1,1Z"/><path d="M145.63,221.78a3.55,3.55,0,0,1-3.29-1.71,11.59,11.59,0,0,1,0-9.58,4,4,0,0,1,6.57,0,11.59,11.59,0,0,1,0,9.58A3.55,3.55,0,0,1,145.63,221.78Zm0-1.33a2.46,2.46,0,0,0,1.26-.3,2.33,2.33,0,0,0,.85-.86,4.29,4.29,0,0,0,.48-1.31,8.45,8.45,0,0,0,.15-1.67v-2a8.44,8.44,0,0,0-.15-1.67,4.3,4.3,0,0,0-.48-1.31,2.35,2.35,0,0,0-.85-.86,2.76,2.76,0,0,0-2.52,0,2.35,2.35,0,0,0-.85.86,4.28,4.28,0,0,0-.48,1.31,8.37,8.37,0,0,0-.15,1.67v2A8.37,8.37,0,0,0,143,218a4.26,4.26,0,0,0,.48,1.31,2.33,2.33,0,0,0,.85.86A2.46,2.46,0,0,0,145.63,220.44Z"/><path d="M156.43,221.78a3.55,3.55,0,0,1-3.29-1.71,11.59,11.59,0,0,1,0-9.58,4,4,0,0,1,6.57,0,11.59,11.59,0,0,1,0,9.58A3.55,3.55,0,0,1,156.43,221.78Zm0-1.33a2.46,2.46,0,0,0,1.26-.3,2.33,2.33,0,0,0,.85-.86A4.29,4.29,0,0,0,159,218a8.45,8.45,0,0,0,.15-1.67v-2a8.44,8.44,0,0,0-.15-1.67,4.3,4.3,0,0,0-.48-1.31,2.35,2.35,0,0,0-.85-.86,2.76,2.76,0,0,0-2.52,0,2.35,2.35,0,0,0-.85.86,4.28,4.28,0,0,0-.48,1.31,8.37,8.37,0,0,0-.15,1.67v2a8.37,8.37,0,0,0,.15,1.67,4.26,4.26,0,0,0,.48,1.31,2.33,2.33,0,0,0,.85.86A2.46,2.46,0,0,0,156.43,220.44Z"/></g></g></svg>