<svg xmlns="http://www.w3.org/2000/svg" viewBox="0 0 271.24 271.24"><defs><style>.cls-1{fill:#af71ef;stroke:#000;stroke-miterlimit:10;}</style></defs><title>Fichier 5</title><g id="Calque_2" data-name="Calque 2"><g id="Calque_1-2" data-name="Calque 1"><path class="cls-1" d="M135.62.62,144,6.8a39.73,39.73,0,0,0,33.21,6.61l10.09-2.51,5.36,8.91A39.73,39.73,0,0,0,220.8,38.62l10.28,1.54,1.54,10.28A39.73,39.73,0,0,0,251.44,78.6L260.35,84,257.84,94a39.73,39.73,0,0,0,6.61,33.21l6.18,8.36L264.44,144a39.73,39.73,0,0,0-6.61,33.21l2.51,10.09-8.91,5.36a39.73,39.73,0,0,0-18.81,28.16l-1.54,10.28-10.28,1.54a39.73,39.73,0,0,0-28.16,18.81l-5.36,8.91-10.09-2.51A39.73,39.73,0,0,0,144,264.44l-8.36,6.18-8.36-6.18A39.73,39.73,0,0,0,94,257.84L84,260.35l-5.36-8.91a39.73,39.73,0,0,0-28.16-18.81l-10.28-1.54L38.62,220.8a39.73,39.73,0,0,0-18.81-28.16l-8.91-5.36,2.51-10.09A39.73,39.73,0,0,0,6.8,144L.62,135.62l6.18-8.36A39.73,39.73,0,0,0,13.41,94L10.9,84l8.91-5.36A39.73,39.73,0,0,0,38.62,50.44l1.54-10.28,10.28-1.54A39.73,39.73,0,0,0,78.6,19.81L84,10.9,94,13.41A39.73,39.73,0,0,0,127.26,6.8Z"/><path d="M66.55,102.86H63.48v8.45H52.15V77.71H68.33a19.84,19.84,0,0,1,8.11,1.54A12.42,12.42,0,0,1,82,96.67a11.52,11.52,0,0,1-4.7,4.27l7.06,10.37H72.26Zm4.51-15.38a5,5,0,0,0-3.46-1H63.48v7.87h4.13a5,5,0,0,0,3.46-1,4.24,4.24,0,0,0,0-5.81Z"/><path d="M115.37,100.7H97.13A4.41,4.41,0,0,0,99,103a6.53,6.53,0,0,0,3.36.79,8.49,8.49,0,0,0,2.9-.43,10.21,10.21,0,0,0,2.57-1.49l5.66,5.71q-3.84,4.22-11.47,4.22A18.87,18.87,0,0,1,93.72,110a13.26,13.26,0,0,1-5.57-4.87,13.57,13.57,0,0,1,0-14,13.29,13.29,0,0,1,5.33-4.82,17.55,17.55,0,0,1,14.88-.14,12.49,12.49,0,0,1,5.23,4.66,13.45,13.45,0,0,1,1.94,7.34Q115.51,98.4,115.37,100.7Zm-17-7.82a4.33,4.33,0,0,0-1.44,2.59h8.45a4.41,4.41,0,0,0-1.44-2.57,4.16,4.16,0,0,0-2.78-.94A4.23,4.23,0,0,0,98.37,92.88Z"/><path d="M140.52,87.67q3.65,3.1,3.65,9.53v14.11H134.09v-3.46q-1.87,3.94-7.44,3.94a11.88,11.88,0,0,1-5.3-1.08,7.61,7.61,0,0,1-4.44-7.08,6.68,6.68,0,0,1,3-5.9q3-2,9-2h4.37q-.53-3.07-4.94-3.07a12.4,12.4,0,0,0-3.6.55,10.1,10.1,0,0,0-3.12,1.51l-3.46-7.15a19.07,19.07,0,0,1,5.45-2.18,26.31,26.31,0,0,1,6.36-.79Q136.87,84.58,140.52,87.67Zm-8.54,17a3.6,3.6,0,0,0,1.34-1.87v-1.82h-2.69q-3.31,0-3.31,2.21a1.91,1.91,0,0,0,.7,1.51,2.8,2.8,0,0,0,1.9.6A3.57,3.57,0,0,0,132,104.64Z"/><path d="M148.87,75.7h10.85v35.62H148.87Z"/><path d="M164.52,75.7h10.85v35.62H164.52Z"/><path d="M209.4,85.06l-10.8,26.78q-2.06,5.14-5.14,7.2a13.21,13.21,0,0,1-7.54,2.06,15.87,15.87,0,0,1-4.44-.65,10,10,0,0,1-3.53-1.7l3.6-7.44a7.08,7.08,0,0,0,1.85,1,5.7,5.7,0,0,0,2,.38,3.36,3.36,0,0,0,2.69-1.06L177,85.06h11.14l5.42,14.06,5.52-14.06Z"/><path d="M210,110a6,6,0,0,1-1.8-4.49,5.84,5.84,0,0,1,1.8-4.44,6.89,6.89,0,0,1,9.07,0,5.84,5.84,0,0,1,1.8,4.44,6,6,0,0,1-1.8,4.49,6.75,6.75,0,0,1-9.07,0Z"/><path d="M94.29,200.34H86v-1.55l4.1-3.78a9.09,9.09,0,0,0,1.48-1.72,3.33,3.33,0,0,0,.59-1.83v-.22a2.47,2.47,0,0,0-.58-1.7,2.21,2.21,0,0,0-1.75-.65,2.87,2.87,0,0,0-1,.16,2.3,2.3,0,0,0-.75.45,2.52,2.52,0,0,0-.52.67,4.17,4.17,0,0,0-.33.84l-1.35-.52a5.29,5.29,0,0,1,.5-1.09,3.65,3.65,0,0,1,1.94-1.6,4.61,4.61,0,0,1,1.59-.25,4.65,4.65,0,0,1,1.64.27,3.24,3.24,0,0,1,2,1.91,4,4,0,0,1,.26,1.47,4.36,4.36,0,0,1-.21,1.37,5.32,5.32,0,0,1-.57,1.2,7.25,7.25,0,0,1-.87,1.11q-.51.54-1.11,1.08l-3.38,3h6.61Z"/><path d="M98.65,200.34l4.81-11.27H98.09v2.34H96.74v-3.64H105v1.33l-4.72,11.23Z"/><path d="M106.46,203.06l4.7-16h1.3l-4.7,16Z"/><path d="M118.59,200.56a3.55,3.55,0,0,1-3.29-1.71,11.59,11.59,0,0,1,0-9.58,4,4,0,0,1,6.57,0,11.59,11.59,0,0,1,0,9.58A3.55,3.55,0,0,1,118.59,200.56Zm0-1.33a2.46,2.46,0,0,0,1.26-.3,2.33,2.33,0,0,0,.85-.86,4.29,4.29,0,0,0,.48-1.31,8.45,8.45,0,0,0,.15-1.67v-2a8.44,8.44,0,0,0-.15-1.67,4.3,4.3,0,0,0-.48-1.31,2.35,2.35,0,0,0-.85-.86,2.76,2.76,0,0,0-2.52,0,2.35,2.35,0,0,0-.85.86,4.28,4.28,0,0,0-.48,1.31,8.37,8.37,0,0,0-.15,1.67v2a8.37,8.37,0,0,0,.15,1.67,4.26,4.26,0,0,0,.48,1.31,2.33,2.33,0,0,0,.85.86A2.46,2.46,0,0,0,118.59,199.22Z"/><path d="M127.14,200.34l4.81-11.27h-5.36v2.34h-1.35v-3.64h8.24v1.33l-4.72,11.23Z"/><path d="M134.95,203.06l4.7-16h1.3l-4.7,16Z"/><path d="M151.28,200.34H143v-1.55l4.1-3.78a9.09,9.09,0,0,0,1.48-1.72,3.33,3.33,0,0,0,.59-1.83v-.22a2.47,2.47,0,0,0-.58-1.7,2.21,2.21,0,0,0-1.75-.65,2.87,2.87,0,0,0-1,.16,2.3,2.3,0,0,0-.75.45,2.52,2.52,0,0,0-.52.67,4.17,4.17,0,0,0-.33.84l-1.35-.52a5.29,5.29,0,0,1,.5-1.09,3.65,3.65,0,0,1,1.94-1.6,4.61,4.61,0,0,1,1.59-.25,4.65,4.65,0,0,1,1.64.27,3.24,3.24,0,0,1,2,1.91,4,4,0,0,1,.26,1.47,4.36,4.36,0,0,1-.21,1.37,5.32,5.32,0,0,1-.57,1.2,7.25,7.25,0,0,1-.87,1.11q-.51.54-1.11,1.08l-3.38,3h6.61Z"/><path d="M157.88,200.56a3.55,3.55,0,0,1-3.29-1.71,11.59,11.59,0,0,1,0-9.58,4,4,0,0,1,6.57,0,11.59,11.59,0,0,1,0,9.58A3.55,3.55,0,0,1,157.88,200.56Zm0-1.33a2.46,2.46,0,0,0,1.26-.3,2.33,2.33,0,0,0,.85-.86,4.29,4.29,0,0,0,.48-1.31,8.45,8.45,0,0,0,.15-1.67v-2a8.44,8.44,0,0,0-.15-1.67,4.3,4.3,0,0,0-.48-1.31,2.35,2.35,0,0,0-.85-.86,2.76,2.76,0,0,0-2.52,0,2.35,2.35,0,0,0-.85.86,4.28,4.28,0,0,0-.48,1.31,8.37,8.37,0,0,0-.15,1.67v2a8.37,8.37,0,0,0,.15,1.67,4.26,4.26,0,0,0,.48,1.31,2.33,2.33,0,0,0,.85.86A2.46,2.46,0,0,0,157.88,199.22Z"/><path d="M172.87,200.34h-8.24v-1.55l4.1-3.78a9.09,9.09,0,0,0,1.48-1.72,3.33,3.33,0,0,0,.59-1.83v-.22a2.47,2.47,0,0,0-.58-1.7,2.21,2.21,0,0,0-1.75-.65,2.87,2.87,0,0,0-1,.16,2.3,2.3,0,0,0-.75.45,2.52,2.52,0,0,0-.52.67,4.17,4.17,0,0,0-.33.84l-1.35-.52a5.29,5.29,0,0,1,.5-1.09,3.65,3.65,0,0,1,1.94-1.6,4.61,4.61,0,0,1,1.59-.25,4.65,4.65,0,0,1,1.64.27,3.24,3.24,0,0,1,2,1.91,4,4,0,0,1,.26,1.47,4.36,4.36,0,0,1-.21,1.37,5.32,5.32,0,0,1-.57,1.2,7.25,7.25,0,0,1-.87,1.11q-.51.54-1.11,1.08l-3.38,3h6.61Z"/><path d="M179.48,200.56a3.55,3.55,0,0,1-3.29-1.71,11.59,11.59,0,0,1,0-9.58,4,4,0,0,1,6.57,0,11.59,11.59,0,0,1,0,9.58A3.55,3.55,0,0,1,179.48,200.56Zm0-1.33a2.46,2.46,0,0,0,1.26-.3,2.33,2.33,0,0,0,.85-.86,4.29,4.29,0,0,0,.48-1.31,8.45,8.45,0,0,0,.15-1.67v-2a8.44,8.44,0,0,0-.15-1.67,4.3,4.3,0,0,0-.48-1.31,2.35,2.35,0,0,0-.85-.86,2.76,2.76,0,0,0-2.52,0,2.35,2.35,0,0,0-.85.86,4.28,4.28,0,0,0-.48,1.31,8.37,8.37,0,0,0-.15,1.67v2a8.37,8.37,0,0,0,.15,1.67,4.26,4.26,0,0,0,.48,1.31,2.33,2.33,0,0,0,.85.86A2.46,2.46,0,0,0,179.48,199.22Z"/><path d="M112.14,221.94v-1.33h3.51V210.49h-.13l-3.17,3-.88-1,3.33-3.11h2.36v11.23h3.24v1.33Z"/><path d="M131,214a8.21,8.21,0,0,1-.41,2.64,10,10,0,0,1-1.07,2.25,10.68,10.68,0,0,1-1.45,1.8,9.74,9.74,0,0,1-1.55,1.27h-1.94q1-.74,1.8-1.44a10.82,10.82,0,0,0,1.39-1.46,8.83,8.83,0,0,0,1-1.63,9.69,9.69,0,0,0,.67-2l-.09,0a4.14,4.14,0,0,1-1.16,1.29,3.12,3.12,0,0,1-1.86.51,4,4,0,0,1-1.49-.27,3.26,3.26,0,0,1-1.17-.78,3.64,3.64,0,0,1-.76-1.22,4.39,4.39,0,0,1-.28-1.61,4.63,4.63,0,0,1,.3-1.69,3.77,3.77,0,0,1,.85-1.32,3.86,3.86,0,0,1,1.31-.86,4.59,4.59,0,0,1,1.72-.31,4.44,4.44,0,0,1,1.75.33,3.68,3.68,0,0,1,1.33,1,4.18,4.18,0,0,1,.84,1.52A6.58,6.58,0,0,1,131,214Zm-4.19,1.94a2.4,2.4,0,0,0,2.63-2.65v-.14a2.63,2.63,0,1,0-5.26,0v.14a2.4,2.4,0,0,0,2.63,2.65Z"/><path d="M134.79,214.76a1,1,0,0,1-1.1-1v-.23a1.1,1.1,0,1,1,2.2,0v.23a1,1,0,0,1-1.1,1Zm0,7.4a1,1,0,0,1-1.1-1v-.23a1.1,1.1,0,1,1,2.2,0v.23a1,1,0,0,1-1.1,1Z"/><path d="M142.82,222.16a3.55,3.55,0,0,1-3.29-1.71,11.59,11.59,0,0,1,0-9.58,4,4,0,0,1,6.57,0,11.59,11.59,0,0,1,0,9.58A3.55,3.55,0,0,1,142.82,222.16Zm0-1.33a2.46,2.46,0,0,0,1.26-.3,2.33,2.33,0,0,0,.85-.86,4.29,4.29,0,0,0,.48-1.31,8.45,8.45,0,0,0,.15-1.67v-2a8.44,8.44,0,0,0-.15-1.67,4.3,4.3,0,0,0-.48-1.31,2.35,2.35,0,0,0-.85-.86,2.76,2.76,0,0,0-2.52,0,2.35,2.35,0,0,0-.85.86,4.28,4.28,0,0,0-.48,1.31,8.37,8.37,0,0,0-.15,1.67v2a8.37,8.37,0,0,0,.15,1.67,4.26,4.26,0,0,0,.48,1.31,2.33,2.33,0,0,0,.85.86A2.46,2.46,0,0,0,142.82,220.83Z"/><path d="M153.62,222.16a3.55,3.55,0,0,1-3.29-1.71,11.59,11.59,0,0,1,0-9.58,4,4,0,0,1,6.57,0,11.59,11.59,0,0,1,0,9.58A3.55,3.55,0,0,1,153.62,222.16Zm0-1.33a2.46,2.46,0,0,0,1.26-.3,2.33,2.33,0,0,0,.85-.86,4.29,4.29,0,0,0,.48-1.31,8.45,8.45,0,0,0,.15-1.67v-2a8.44,8.44,0,0,0-.15-1.67,4.3,4.3,0,0,0-.48-1.31,2.35,2.35,0,0,0-.85-.86,2.76,2.76,0,0,0-2.52,0,2.35,2.35,0,0,0-.85.86A4.28,4.28,0,0,0,151,213a8.37,8.37,0,0,0-.15,1.67v2a8.37,8.37,0,0,0,.15,1.67,4.26,4.26,0,0,0,.48,1.31,2.33,2.33,0,0,0,.85.86A2.46,2.46,0,0,0,153.62,220.83Z"/></g></g></svg>