<svg xmlns="http://www.w3.org/2000/svg" viewBox="0 0 271 271"><defs><style>.cls-1{fill:#af71ef;stroke:#000;stroke-miterlimit:10;}</style></defs><title>Fichier 6</title><g id="Calque_2" data-name="Calque 2"><g id="Calque_1-2" data-name="Calque 1"><path class="cls-1" d="M141.69,2.87h0A9.26,9.26,0,0,1,155.3,4.21h0a9.26,9.26,0,0,0,12.15,2.42h0a9.26,9.26,0,0,1,13.09,4h0A9.26,9.26,0,0,0,192,15.34h0A9.26,9.26,0,0,1,204,21.79h0a9.26,9.26,0,0,0,10.3,6.88h0a9.26,9.26,0,0,1,10.57,8.68h0a9.26,9.26,0,0,0,8.76,8.76h0a9.26,9.26,0,0,1,8.68,10.57h0A9.26,9.26,0,0,0,249.21,67h0A9.26,9.26,0,0,1,255.66,79h0a9.26,9.26,0,0,0,4.74,11.44h0a9.26,9.26,0,0,1,4,13.09h0a9.26,9.26,0,0,0,2.42,12.15h0a9.26,9.26,0,0,1,1.34,13.61h0a9.26,9.26,0,0,0,0,12.38h0a9.26,9.26,0,0,1-1.34,13.61h0a9.26,9.26,0,0,0-2.42,12.15h0a9.26,9.26,0,0,1-4,13.09h0A9.26,9.26,0,0,0,255.66,192h0A9.26,9.26,0,0,1,249.21,204h0a9.26,9.26,0,0,0-6.88,10.3h0a9.26,9.26,0,0,1-8.68,10.57h0a9.26,9.26,0,0,0-8.76,8.76h0a9.26,9.26,0,0,1-10.57,8.68h0a9.26,9.26,0,0,0-10.3,6.88h0A9.26,9.26,0,0,1,192,255.66h0a9.26,9.26,0,0,0-11.44,4.74h0a9.26,9.26,0,0,1-13.09,4h0a9.26,9.26,0,0,0-12.15,2.42h0a9.26,9.26,0,0,1-13.61,1.34h0a9.26,9.26,0,0,0-12.38,0h0a9.26,9.26,0,0,1-13.61-1.34h0a9.26,9.26,0,0,0-12.15-2.42h0a9.26,9.26,0,0,1-13.09-4h0A9.26,9.26,0,0,0,79,255.66h0A9.26,9.26,0,0,1,67,249.21h0a9.26,9.26,0,0,0-10.3-6.88h0a9.26,9.26,0,0,1-10.57-8.68h0a9.26,9.26,0,0,0-8.76-8.76h0a9.26,9.26,0,0,1-8.68-10.57h0A9.26,9.26,0,0,0,21.79,204h0A9.26,9.26,0,0,1,15.34,192h0a9.26,9.26,0,0,0-4.74-11.44h0a9.26,9.26,0,0,1-4-13.09h0A9.26,9.26,0,0,0,4.21,155.3h0a9.26,9.26,0,0,1-1.34-13.61h0a9.26,9.26,0,0,0,0-12.38h0A9.26,9.26,0,0,1,4.21,115.7h0a9.26,9.26,0,0,0,2.42-12.15h0a9.26,9.26,0,0,1,4-13.09h0A9.26,9.26,0,0,0,15.34,79h0A9.26,9.26,0,0,1,21.79,67h0a9.26,9.26,0,0,0,6.88-10.3h0A9.26,9.26,0,0,1,37.34,46.1h0a9.26,9.26,0,0,0,8.76-8.76h0a9.26,9.26,0,0,1,10.57-8.68h0A9.26,9.26,0,0,0,67,21.79h0A9.26,9.26,0,0,1,79,15.34h0A9.26,9.26,0,0,0,90.47,10.6h0a9.26,9.26,0,0,1,13.09-4h0A9.26,9.26,0,0,0,115.7,4.21h0a9.26,9.26,0,0,1,13.61-1.34h0A9.26,9.26,0,0,0,141.69,2.87Z"/><path d="M107.3,60.69l-13.44,42H78.68L71.9,80.25l-7.14,22.44H49.58l-13.44-42H50.72L58,84.57l7.74-23.88h13l7.32,24.18,7.74-24.18Z"/><path d="M143.45,72.93q3.69,3.66,3.69,11v18.72H133.58V86.31q0-5.64-4-5.64a4.7,4.7,0,0,0-3.69,1.59q-1.41,1.59-1.41,5v15.42H110.9V58.17h13.56V72.51a13.71,13.71,0,0,1,9.24-3.24A13.24,13.24,0,0,1,143.45,72.93Z"/><path d="M153.89,65.28a6.57,6.57,0,0,1,0-9.9,8.7,8.7,0,0,1,5.91-1.95,9,9,0,0,1,5.94,1.86,6,6,0,0,1,2.22,4.8,6.61,6.61,0,0,1-2.22,5.13,8.51,8.51,0,0,1-5.94,2A8.7,8.7,0,0,1,153.89,65.28ZM153,69.87h13.56v32.82H153Z"/><path d="M196.76,101.55a16.93,16.93,0,0,1-8.34,1.74q-6.9,0-10.62-3.33t-3.72-10v-8.4h-4.5v-9.9h4.5V62.49h13.56v9.18h6.72v9.9h-6.72v8.28a3.31,3.31,0,0,0,.78,2.34,2.65,2.65,0,0,0,2,.84,5.3,5.3,0,0,0,3.06-.9Z"/><path d="M234,89.43h-22.8a5.52,5.52,0,0,0,2.4,2.85,8.16,8.16,0,0,0,4.2,1,10.61,10.61,0,0,0,3.63-.54,12.75,12.75,0,0,0,3.21-1.86L231.74,98q-4.8,5.28-14.34,5.28A23.58,23.58,0,0,1,207,101.09,16.57,16.57,0,0,1,200,95a17,17,0,0,1,0-17.55,16.61,16.61,0,0,1,6.66-6,21.94,21.94,0,0,1,18.6-.18,15.61,15.61,0,0,1,6.54,5.82,16.82,16.82,0,0,1,2.43,9.18Q234.2,86.55,234,89.43Zm-21.24-9.78a5.41,5.41,0,0,0-1.8,3.24h10.56a5.52,5.52,0,0,0-1.8-3.21,5.2,5.2,0,0,0-3.48-1.17A5.28,5.28,0,0,0,212.78,79.65Z"/><path d="M89.54,110.68v42H77.9l-16-19.08v19.08H48.14v-42H59.78l16,19.08V110.68Z"/><path d="M103.49,151.09A16.85,16.85,0,0,1,96.68,145a16.93,16.93,0,0,1,0-17.58,16.64,16.64,0,0,1,6.81-6,23.49,23.49,0,0,1,19.68,0,16.44,16.44,0,0,1,6.78,6A17.11,17.11,0,0,1,130,145a16.64,16.64,0,0,1-6.78,6.06,23.2,23.2,0,0,1-19.68,0ZM117.14,141a7,7,0,0,0,1.5-4.77,6.88,6.88,0,0,0-1.5-4.74,5.23,5.23,0,0,0-7.68,0,6.88,6.88,0,0,0-1.5,4.74,7,7,0,0,0,1.5,4.77,5.17,5.17,0,0,0,7.68,0Z"/><path d="M137.51,115.27a6.57,6.57,0,0,1,0-9.9,8.7,8.7,0,0,1,5.91-2,9,9,0,0,1,5.94,1.86,6,6,0,0,1,2.22,4.8,6.62,6.62,0,0,1-2.22,5.13,8.51,8.51,0,0,1-5.94,2A8.7,8.7,0,0,1,137.51,115.27Zm-.87,4.59H150.2v32.82H136.64Z"/><path d="M160.76,152.38a23.72,23.72,0,0,1-6.6-2.34l3.72-8.94a19.47,19.47,0,0,0,5.4,2.16,24.92,24.92,0,0,0,6.06.78,9.45,9.45,0,0,0,3.27-.39,1.26,1.26,0,0,0,.93-1.17q0-.78-1.17-1.08a31.55,31.55,0,0,0-3.81-.6,50.11,50.11,0,0,1-6.84-1.23,10.72,10.72,0,0,1-5-2.91,8.43,8.43,0,0,1-2.13-6.18,9.16,9.16,0,0,1,1.92-5.7,12.93,12.93,0,0,1,5.73-4,25,25,0,0,1,9.15-1.5,38.34,38.34,0,0,1,7.29.69,22.22,22.22,0,0,1,6.09,2l-3.72,8.94a19.2,19.2,0,0,0-9.48-2.4q-4.44,0-4.44,1.56,0,.78,1.2,1.11a27.5,27.5,0,0,0,3.78.63,46.23,46.23,0,0,1,6.81,1.26,11,11,0,0,1,4.92,2.94,8.44,8.44,0,0,1,2.13,6.18,9,9,0,0,1-1.92,5.58,13,13,0,0,1-5.76,4,25.63,25.63,0,0,1-9.3,1.5A38.34,38.34,0,0,1,160.76,152.38Z"/><path d="M224.84,139.43H202a5.51,5.51,0,0,0,2.4,2.85,8.16,8.16,0,0,0,4.2,1,10.59,10.59,0,0,0,3.63-.54,12.71,12.71,0,0,0,3.21-1.86l7.08,7.14q-4.8,5.28-14.34,5.28a23.57,23.57,0,0,1-10.44-2.19,16.57,16.57,0,0,1-7-6.09,17,17,0,0,1,0-17.55,16.61,16.61,0,0,1,6.66-6,21.93,21.93,0,0,1,18.6-.18,15.61,15.61,0,0,1,6.54,5.82,16.81,16.81,0,0,1,2.43,9.18Q225,136.55,224.84,139.43Zm-21.24-9.78a5.41,5.41,0,0,0-1.8,3.24h10.56a5.52,5.52,0,0,0-1.8-3.21,5.19,5.19,0,0,0-3.48-1.17A5.29,5.29,0,0,0,203.6,129.64Z"/><path d="M85.77,199.59v-1.33h3.51V188.14h-.13l-3.17,3-.88-1L88.43,187h2.36v11.23H94v1.33Z"/><path d="M100.38,199.8a5.79,5.79,0,0,1-1.89-.28,4,4,0,0,1-1.36-.76,3.14,3.14,0,0,1-.83-1.15,3.68,3.68,0,0,1-.28-1.44,2.9,2.9,0,0,1,.7-2.05,3.79,3.79,0,0,1,1.84-1.06v-.14A3.27,3.27,0,0,1,97,191.8a3,3,0,0,1-.58-1.84,2.81,2.81,0,0,1,1-2.29,5.46,5.46,0,0,1,5.87,0,2.81,2.81,0,0,1,1,2.29,3,3,0,0,1-.58,1.84,3.27,3.27,0,0,1-1.58,1.11v.14a3.79,3.79,0,0,1,1.84,1.06,2.89,2.89,0,0,1,.7,2.05,3.68,3.68,0,0,1-.28,1.44,3.15,3.15,0,0,1-.83,1.15,4,4,0,0,1-1.36.76A5.79,5.79,0,0,1,100.38,199.8Zm0-1.33a3.15,3.15,0,0,0,2-.58,2,2,0,0,0,.72-1.66v-.38a2,2,0,0,0-.72-1.66,3.84,3.84,0,0,0-4.07,0,2,2,0,0,0-.72,1.66v.38a2,2,0,0,0,.72,1.66A3.15,3.15,0,0,0,100.38,198.47Zm0-6.12a2.79,2.79,0,0,0,1.8-.5,1.79,1.79,0,0,0,.61-1.47v-.27a1.79,1.79,0,0,0-.61-1.47,3.48,3.48,0,0,0-3.6,0,1.79,1.79,0,0,0-.61,1.47v.27a1.79,1.79,0,0,0,.61,1.47A2.79,2.79,0,0,0,100.38,192.35Z"/><path d="M105.95,202.31l4.7-16h1.3l-4.7,16Z"/><path d="M118.08,199.8a3.55,3.55,0,0,1-3.29-1.71,11.59,11.59,0,0,1,0-9.58,4,4,0,0,1,6.57,0,11.59,11.59,0,0,1,0,9.58A3.55,3.55,0,0,1,118.08,199.8Zm0-1.33a2.46,2.46,0,0,0,1.26-.3,2.33,2.33,0,0,0,.85-.86,4.29,4.29,0,0,0,.48-1.31,8.45,8.45,0,0,0,.15-1.67v-2a8.44,8.44,0,0,0-.15-1.67,4.3,4.3,0,0,0-.48-1.31,2.35,2.35,0,0,0-.85-.86,2.76,2.76,0,0,0-2.52,0,2.35,2.35,0,0,0-.85.86,4.28,4.28,0,0,0-.48,1.31,8.37,8.37,0,0,0-.15,1.67v2a8.37,8.37,0,0,0,.15,1.67,4.26,4.26,0,0,0,.48,1.31,2.33,2.33,0,0,0,.85.86A2.46,2.46,0,0,0,118.08,198.47Z"/><path d="M126.63,199.59l4.81-11.27h-5.36v2.34h-1.35V187H133v1.33l-4.72,11.23Z"/><path d="M134.44,202.31l4.7-16h1.3l-4.7,16Z"/><path d="M150.76,199.59h-8.24V198l4.1-3.78a9.09,9.09,0,0,0,1.48-1.72,3.33,3.33,0,0,0,.59-1.83v-.22a2.47,2.47,0,0,0-.58-1.7,2.21,2.21,0,0,0-1.75-.65,2.87,2.87,0,0,0-1,.16,2.3,2.3,0,0,0-.75.45,2.52,2.52,0,0,0-.52.67,4.17,4.17,0,0,0-.33.84l-1.35-.52a5.29,5.29,0,0,1,.5-1.09,3.65,3.65,0,0,1,1.94-1.6,4.61,4.61,0,0,1,1.59-.25,4.65,4.65,0,0,1,1.64.27,3.24,3.24,0,0,1,2,1.91,4,4,0,0,1,.26,1.47,4.36,4.36,0,0,1-.21,1.37,5.32,5.32,0,0,1-.57,1.2,7.25,7.25,0,0,1-.87,1.11q-.51.54-1.11,1.08l-3.38,3h6.61Z"/><path d="M157.37,199.8a3.55,3.55,0,0,1-3.29-1.71,11.59,11.59,0,0,1,0-9.58,4,4,0,0,1,6.57,0,11.59,11.59,0,0,1,0,9.58A3.55,3.55,0,0,1,157.37,199.8Zm0-1.33a2.46,2.46,0,0,0,1.26-.3,2.33,2.33,0,0,0,.85-.86A4.29,4.29,0,0,0,160,196a8.45,8.45,0,0,0,.15-1.67v-2a8.44,8.44,0,0,0-.15-1.67,4.3,4.3,0,0,0-.48-1.31,2.35,2.35,0,0,0-.85-.86,2.76,2.76,0,0,0-2.52,0,2.35,2.35,0,0,0-.85.86,4.28,4.28,0,0,0-.48,1.31,8.37,8.37,0,0,0-.15,1.67v2a8.37,8.37,0,0,0,.15,1.67,4.26,4.26,0,0,0,.48,1.31,2.33,2.33,0,0,0,.85.86A2.46,2.46,0,0,0,157.37,198.47Z"/><path d="M172.36,199.59h-8.24V198l4.1-3.78a9.09,9.09,0,0,0,1.48-1.72,3.33,3.33,0,0,0,.59-1.83v-.22a2.47,2.47,0,0,0-.58-1.7,2.21,2.21,0,0,0-1.75-.65,2.87,2.87,0,0,0-1,.16,2.3,2.3,0,0,0-.75.45,2.52,2.52,0,0,0-.52.67,4.17,4.17,0,0,0-.33.84l-1.35-.52a5.29,5.29,0,0,1,.5-1.09,3.65,3.65,0,0,1,1.94-1.6,4.61,4.61,0,0,1,1.59-.25,4.65,4.65,0,0,1,1.64.27,3.24,3.24,0,0,1,2,1.91,4,4,0,0,1,.26,1.47,4.36,4.36,0,0,1-.21,1.37,5.32,5.32,0,0,1-.57,1.2,7.25,7.25,0,0,1-.87,1.11q-.51.54-1.11,1.08l-3.38,3h6.61Z"/><path d="M179,199.8a3.55,3.55,0,0,1-3.29-1.71,11.59,11.59,0,0,1,0-9.58,4,4,0,0,1,6.57,0,11.59,11.59,0,0,1,0,9.58A3.55,3.55,0,0,1,179,199.8Zm0-1.33a2.46,2.46,0,0,0,1.26-.3,2.33,2.33,0,0,0,.85-.86,4.29,4.29,0,0,0,.48-1.31,8.45,8.45,0,0,0,.15-1.67v-2a8.44,8.44,0,0,0-.15-1.67,4.3,4.3,0,0,0-.48-1.31,2.35,2.35,0,0,0-.85-.86,2.76,2.76,0,0,0-2.52,0,2.35,2.35,0,0,0-.85.86,4.28,4.28,0,0,0-.48,1.31,8.37,8.37,0,0,0-.15,1.67v2a8.37,8.37,0,0,0,.15,1.67,4.26,4.26,0,0,0,.48,1.31,2.33,2.33,0,0,0,.85.86A2.46,2.46,0,0,0,179,198.47Z"/><path d="M111.63,221.19v-1.33h3.51V209.74H115l-3.17,3-.88-1,3.33-3.11h2.36v11.23h3.24v1.33Z"/><path d="M126.25,221.4a5.79,5.79,0,0,1-1.89-.28,4,4,0,0,1-1.36-.76,3.14,3.14,0,0,1-.83-1.15,3.68,3.68,0,0,1-.28-1.44,2.9,2.9,0,0,1,.7-2.05,3.79,3.79,0,0,1,1.84-1.06v-.14a3.27,3.27,0,0,1-1.58-1.11,3,3,0,0,1-.58-1.84,2.81,2.81,0,0,1,1-2.29,5.46,5.46,0,0,1,5.87,0,2.81,2.81,0,0,1,1,2.29,3,3,0,0,1-.58,1.84,3.27,3.27,0,0,1-1.58,1.11v.14a3.79,3.79,0,0,1,1.84,1.06,2.89,2.89,0,0,1,.7,2.05,3.68,3.68,0,0,1-.28,1.44,3.15,3.15,0,0,1-.83,1.15,4,4,0,0,1-1.36.76A5.79,5.79,0,0,1,126.25,221.4Zm0-1.33a3.15,3.15,0,0,0,2-.58,2,2,0,0,0,.72-1.66v-.38a2,2,0,0,0-.72-1.66,3.84,3.84,0,0,0-4.07,0,2,2,0,0,0-.72,1.66v.38a2,2,0,0,0,.72,1.66A3.15,3.15,0,0,0,126.25,220.07Zm0-6.12a2.79,2.79,0,0,0,1.8-.5,1.79,1.79,0,0,0,.61-1.47v-.27a1.79,1.79,0,0,0-.61-1.47,3.48,3.48,0,0,0-3.6,0,1.79,1.79,0,0,0-.61,1.47V212a1.79,1.79,0,0,0,.61,1.47A2.79,2.79,0,0,0,126.25,214Z"/><path d="M134.28,214a1,1,0,0,1-1.1-1v-.23a1.1,1.1,0,1,1,2.2,0V213a1,1,0,0,1-1.1,1Zm0,7.4a1,1,0,0,1-1.1-1v-.23a1.1,1.1,0,1,1,2.2,0v.23a1,1,0,0,1-1.1,1Z"/><path d="M142.31,221.4a3.55,3.55,0,0,1-3.29-1.71,11.59,11.59,0,0,1,0-9.58,4,4,0,0,1,6.57,0,11.59,11.59,0,0,1,0,9.58A3.55,3.55,0,0,1,142.31,221.4Zm0-1.33a2.46,2.46,0,0,0,1.26-.3,2.33,2.33,0,0,0,.85-.86,4.29,4.29,0,0,0,.48-1.31,8.45,8.45,0,0,0,.15-1.67v-2a8.44,8.44,0,0,0-.15-1.67,4.3,4.3,0,0,0-.48-1.31,2.35,2.35,0,0,0-.85-.86,2.76,2.76,0,0,0-2.52,0,2.35,2.35,0,0,0-.85.86,4.28,4.28,0,0,0-.48,1.31,8.37,8.37,0,0,0-.15,1.67v2a8.37,8.37,0,0,0,.15,1.67,4.26,4.26,0,0,0,.48,1.31,2.33,2.33,0,0,0,.85.86A2.46,2.46,0,0,0,142.31,220.07Z"/><path d="M153.1,221.4a3.55,3.55,0,0,1-3.29-1.71,11.59,11.59,0,0,1,0-9.58,4,4,0,0,1,6.57,0,11.59,11.59,0,0,1,0,9.58A3.55,3.55,0,0,1,153.1,221.4Zm0-1.33a2.46,2.46,0,0,0,1.26-.3,2.33,2.33,0,0,0,.85-.86,4.29,4.29,0,0,0,.48-1.31,8.45,8.45,0,0,0,.15-1.67v-2a8.44,8.44,0,0,0-.15-1.67,4.3,4.3,0,0,0-.48-1.31,2.35,2.35,0,0,0-.85-.86,2.76,2.76,0,0,0-2.52,0,2.35,2.35,0,0,0-.85.86,4.28,4.28,0,0,0-.48,1.31,8.37,8.37,0,0,0-.15,1.67v2a8.37,8.37,0,0,0,.15,1.67,4.26,4.26,0,0,0,.48,1.31,2.33,2.33,0,0,0,.85.86A2.46,2.46,0,0,0,153.1,220.07Z"/></g></g></svg>