<svg xmlns="http://www.w3.org/2000/svg" viewBox="0 0 271 271"><defs><style>.cls-1{fill:#e35535;stroke:#000;stroke-miterlimit:10;}</style></defs><title>Fichier 8</title><g id="Calque_2" data-name="Calque 2"><g id="Calque_1-2" data-name="Calque 1"><path class="cls-1" d="M141.69,2.87h0A9.26,9.26,0,0,1,155.3,4.21h0a9.26,9.26,0,0,0,12.15,2.42h0a9.26,9.26,0,0,1,13.09,4h0A9.26,9.26,0,0,0,192,15.34h0A9.26,9.26,0,0,1,204,21.79h0a9.26,9.26,0,0,0,10.3,6.88h0a9.26,9.26,0,0,1,10.57,8.68h0a9.26,9.26,0,0,0,8.76,8.76h0a9.26,9.26,0,0,1,8.68,10.57h0A9.26,9.26,0,0,0,249.21,67h0A9.26,9.26,0,0,1,255.66,79h0a9.26,9.26,0,0,0,4.74,11.44h0a9.26,9.26,0,0,1,4,13.09h0a9.26,9.26,0,0,0,2.42,12.15h0a9.26,9.26,0,0,1,1.34,13.61h0a9.26,9.26,0,0,0,0,12.38h0a9.26,9.26,0,0,1-1.34,13.61h0a9.26,9.26,0,0,0-2.42,12.15h0a9.26,9.26,0,0,1-4,13.09h0A9.26,9.26,0,0,0,255.66,192h0A9.26,9.26,0,0,1,249.21,204h0a9.26,9.26,0,0,0-6.88,10.3h0a9.26,9.26,0,0,1-8.68,10.57h0a9.26,9.26,0,0,0-8.76,8.76h0a9.26,9.26,0,0,1-10.57,8.68h0a9.26,9.26,0,0,0-10.3,6.88h0A9.26,9.26,0,0,1,192,255.66h0a9.26,9.26,0,0,0-11.44,4.74h0a9.26,9.26,0,0,1-13.09,4h0a9.26,9.26,0,0,0-12.15,2.42h0a9.26,9.26,0,0,1-13.61,1.34h0a9.26,9.26,0,0,0-12.38,0h0a9.26,9.26,0,0,1-13.61-1.34h0a9.26,9.26,0,0,0-12.15-2.42h0a9.26,9.26,0,0,1-13.09-4h0A9.26,9.26,0,0,0,79,255.66h0A9.26,9.26,0,0,1,67,249.21h0a9.26,9.26,0,0,0-10.3-6.88h0a9.26,9.26,0,0,1-10.57-8.68h0a9.26,9.26,0,0,0-8.76-8.76h0a9.26,9.26,0,0,1-8.68-10.57h0A9.26,9.26,0,0,0,21.79,204h0A9.26,9.26,0,0,1,15.34,192h0a9.26,9.26,0,0,0-4.74-11.44h0a9.26,9.26,0,0,1-4-13.09h0A9.26,9.26,0,0,0,4.21,155.3h0a9.26,9.26,0,0,1-1.34-13.61h0a9.26,9.26,0,0,0,0-12.38h0A9.26,9.26,0,0,1,4.21,115.7h0a9.26,9.26,0,0,0,2.42-12.15h0a9.26,9.26,0,0,1,4-13.09h0A9.26,9.26,0,0,0,15.34,79h0A9.26,9.26,0,0,1,21.79,67h0a9.26,9.26,0,0,0,6.88-10.3h0A9.26,9.26,0,0,1,37.34,46.1h0a9.26,9.26,0,0,0,8.76-8.76h0a9.26,9.26,0,0,1,10.57-8.68h0A9.26,9.26,0,0,0,67,21.79h0A9.26,9.26,0,0,1,79,15.34h0A9.26,9.26,0,0,0,90.47,10.6h0a9.26,9.26,0,0,1,13.09-4h0A9.26,9.26,0,0,0,115.7,4.21h0a9.26,9.26,0,0,1,13.61-1.34h0A9.26,9.26,0,0,0,141.69,2.87Z"/><path d="M68.08,101.37A9.55,9.55,0,0,1,64.52,104a11.48,11.48,0,0,1-4.6.9,15.25,15.25,0,0,1-4.52-.62,13.73,13.73,0,0,1-4-2.08,35.68,35.68,0,0,1-4.56-4.14,15.23,15.23,0,0,1-6.2-2.74,14.35,14.35,0,0,1,2-24.26,17.28,17.28,0,0,1,8.12-1.88,17.27,17.27,0,0,1,8.12,1.88A14.56,14.56,0,0,1,64.12,92a14.33,14.33,0,0,1-6.6,5.22,3.62,3.62,0,0,0,1.22.9,3.54,3.54,0,0,0,1.38.26A5.43,5.43,0,0,0,64,96.57ZM47.58,77.71a6.16,6.16,0,0,0-2.26,2.44,8.57,8.57,0,0,0,0,7.4A6.15,6.15,0,0,0,47.58,90a6.31,6.31,0,0,0,6.36,0,6.16,6.16,0,0,0,2.26-2.44,8.57,8.57,0,0,0,0-7.4,6.17,6.17,0,0,0-2.26-2.44,6.31,6.31,0,0,0-6.36,0Z"/><path d="M93.64,76V97.85H85V95.77a7.74,7.74,0,0,1-2.8,1.86,9.32,9.32,0,0,1-3.4.62,9,9,0,0,1-6.68-2.54Q69.64,93.17,69.64,88V76h9V86.49a5.44,5.44,0,0,0,.72,3.2,2.48,2.48,0,0,0,2.12,1,2.74,2.74,0,0,0,2.2-1.06,5.19,5.19,0,0,0,.88-3.34V76Z"/><path d="M116.24,78.15q3,2.58,3,7.94V97.85h-8.4V95q-1.56,3.28-6.2,3.28a9.9,9.9,0,0,1-4.42-.9,6.34,6.34,0,0,1-3.7-5.9A5.56,5.56,0,0,1,99,86.53q2.48-1.68,7.52-1.68h3.64q-.44-2.56-4.12-2.56a10.33,10.33,0,0,0-3,.46,8.45,8.45,0,0,0-2.6,1.26L97.6,78a15.89,15.89,0,0,1,4.54-1.82,21.94,21.94,0,0,1,5.3-.66Q113.2,75.57,116.24,78.15Zm-7.12,14.14a3,3,0,0,0,1.12-1.56V89.21H108q-2.76,0-2.76,1.84a1.59,1.59,0,0,0,.58,1.26,2.33,2.33,0,0,0,1.58.5A3,3,0,0,0,109.12,92.29Z"/><path d="M144.9,78q2.46,2.44,2.46,7.36V97.85h-9V86.93q0-3.76-2.68-3.76a3.13,3.13,0,0,0-2.46,1.06,5,5,0,0,0-.94,3.34V97.85h-9V76h8.6v2.16a8.35,8.35,0,0,1,3-1.92,10.15,10.15,0,0,1,3.64-.64A8.83,8.83,0,0,1,144.9,78Z"/><path d="M167.4,97.09a11.29,11.29,0,0,1-5.56,1.16q-4.6,0-7.08-2.22t-2.48-6.66v-5.6h-3v-6.6h3V71h9v6.12h4.48v6.6h-4.48v5.52a2.2,2.2,0,0,0,.52,1.56,1.77,1.77,0,0,0,1.36.56,3.53,3.53,0,0,0,2-.6Z"/><path d="M193.6,76V97.85H185V95.77a7.74,7.74,0,0,1-2.8,1.86,9.32,9.32,0,0,1-3.4.62,9,9,0,0,1-6.68-2.54Q169.6,93.17,169.6,88V76h9V86.49a5.44,5.44,0,0,0,.72,3.2,2.48,2.48,0,0,0,2.12,1,2.74,2.74,0,0,0,2.2-1.06,5.19,5.19,0,0,0,.88-3.34V76Z"/><path d="M232.9,78q2.38,2.44,2.38,7.36V97.85h-9V86.93q0-3.76-2.44-3.76a2.52,2.52,0,0,0-2.06,1,4.8,4.8,0,0,0-.78,3V97.85h-9V86.93q0-3.76-2.44-3.76a2.52,2.52,0,0,0-2.06,1,4.8,4.8,0,0,0-.78,3V97.85h-9V76h8.6v2a8.4,8.4,0,0,1,6.2-2.44,9.27,9.27,0,0,1,4,.82,6.94,6.94,0,0,1,2.88,2.5,8.9,8.9,0,0,1,3.2-2.46,9.79,9.79,0,0,1,4.12-.86A8.45,8.45,0,0,1,232.9,78Z"/><path d="M54.94,109.85l-11.84,28H33.82L22,109.85H32.14l6.68,16.36,6.84-16.36Z"/><path d="M57,112.91a4.38,4.38,0,0,1,0-6.6A5.8,5.8,0,0,1,60.9,105a6,6,0,0,1,4,1.24,4,4,0,0,1,1.48,3.2,4.41,4.41,0,0,1-1.48,3.42,5.67,5.67,0,0,1-4,1.34A5.8,5.8,0,0,1,57,112.91ZM56.38,116h9v21.88h-9Z"/><path d="M89.32,116.95a10,10,0,0,1,3.84,4,13.35,13.35,0,0,1,0,12,10,10,0,0,1-3.84,4,10.52,10.52,0,0,1-5.3,1.38q-4,0-6-2.2v1.8h-8.6V108.17h9v9.28A7.63,7.63,0,0,1,84,115.57,10.52,10.52,0,0,1,89.32,116.95Zm-4.9,13.12a4.67,4.67,0,0,0,1-3.18,4.59,4.59,0,0,0-1-3.16,3.49,3.49,0,0,0-5.12,0,4.58,4.58,0,0,0-1,3.16,4.66,4.66,0,0,0,1,3.18,3.45,3.45,0,0,0,5.12,0Z"/><path d="M113.1,115.57v8a13.76,13.76,0,0,0-2-.16q-4.64,0-4.64,4.72v9.72h-9V116H106v2.36Q108.42,115.57,113.1,115.57Z"/><path d="M134.06,118.15q3,2.58,3,7.94v11.76h-8.4V135q-1.56,3.28-6.2,3.28a9.9,9.9,0,0,1-4.42-.9,6.34,6.34,0,0,1-3.7-5.9,5.56,5.56,0,0,1,2.48-4.92q2.48-1.68,7.52-1.68H128q-.44-2.56-4.12-2.56a10.35,10.35,0,0,0-3,.46,8.46,8.46,0,0,0-2.6,1.26l-2.88-6a15.88,15.88,0,0,1,4.54-1.82,21.92,21.92,0,0,1,5.3-.66Q131,115.57,134.06,118.15Zm-7.12,14.14a3,3,0,0,0,1.12-1.56v-1.52h-2.24q-2.76,0-2.76,1.84a1.59,1.59,0,0,0,.58,1.26,2.33,2.33,0,0,0,1.58.5A3,3,0,0,0,126.94,132.29Z"/><path d="M157.14,137.09a11.29,11.29,0,0,1-5.56,1.16q-4.6,0-7.08-2.22T142,129.37v-5.6h-3v-6.6h3V111h9v6.12h4.48v6.6h-4.48v5.52a2.2,2.2,0,0,0,.52,1.56,1.77,1.77,0,0,0,1.36.56,3.54,3.54,0,0,0,2-.6Z"/><path d="M160,112.91a4.38,4.38,0,0,1,0-6.6,5.8,5.8,0,0,1,3.94-1.3,6,6,0,0,1,4,1.24,4,4,0,0,1,1.48,3.2,4.41,4.41,0,0,1-1.48,3.42,5.68,5.68,0,0,1-4,1.34A5.8,5.8,0,0,1,160,112.91Zm-.58,3.06h9v21.88h-9Z"/><path d="M177.48,136.79a11.23,11.23,0,0,1-4.54-4,11.29,11.29,0,0,1,0-11.72,11.1,11.1,0,0,1,4.54-4,15.66,15.66,0,0,1,13.12,0,11,11,0,0,1,4.52,4,11.41,11.41,0,0,1,0,11.72,11.08,11.08,0,0,1-4.52,4,15.47,15.47,0,0,1-13.12,0Zm9.1-6.72a4.67,4.67,0,0,0,1-3.18,4.59,4.59,0,0,0-1-3.16,3.49,3.49,0,0,0-5.12,0,4.58,4.58,0,0,0-1,3.16,4.66,4.66,0,0,0,1,3.18,3.45,3.45,0,0,0,5.12,0Z"/><path d="M221.28,118q2.46,2.44,2.46,7.36v12.48h-9V126.93q0-3.76-2.68-3.76a3.13,3.13,0,0,0-2.46,1.06,5,5,0,0,0-.94,3.34v10.28h-9V116h8.6v2.16a8.36,8.36,0,0,1,3-1.92,10.16,10.16,0,0,1,3.64-.64A8.83,8.83,0,0,1,221.28,118Z"/><path d="M230.7,137.65a15.83,15.83,0,0,1-4.4-1.56l2.48-6a13,13,0,0,0,3.6,1.44,16.62,16.62,0,0,0,4,.52,6.29,6.29,0,0,0,2.18-.26.84.84,0,0,0,.62-.78q0-.52-.78-.72a21.2,21.2,0,0,0-2.54-.4,33.43,33.43,0,0,1-4.56-.82,7.15,7.15,0,0,1-3.3-1.94,5.62,5.62,0,0,1-1.42-4.12,6.11,6.11,0,0,1,1.28-3.8,8.62,8.62,0,0,1,3.82-2.68,16.66,16.66,0,0,1,6.1-1,25.56,25.56,0,0,1,4.86.46,14.83,14.83,0,0,1,4.06,1.34l-2.48,6a12.8,12.8,0,0,0-6.32-1.6q-3,0-3,1,0,.52.8.74a18.6,18.6,0,0,0,2.52.42,30.74,30.74,0,0,1,4.54.84,7.31,7.31,0,0,1,3.28,2,5.62,5.62,0,0,1,1.42,4.12,6,6,0,0,1-1.28,3.72,8.62,8.62,0,0,1-3.84,2.68,17.06,17.06,0,0,1-6.2,1A25.53,25.53,0,0,1,230.7,137.65Z"/><path d="M110.59,161.45a23.8,23.8,0,0,1,0-12.36A15.93,15.93,0,0,1,113,144h5.18a24.26,24.26,0,0,0-2.34,5.58,22.21,22.21,0,0,0,0,11.3,24.24,24.24,0,0,0,2.34,5.58H113A15.93,15.93,0,0,1,110.59,161.45Z"/><path d="M126.69,145v16.8H121V149.32h-2.88V145Z"/><path d="M135,141.64h4.8l-7.92,22.61h-4.8Z"/><path d="M152.76,157.45v4.39H139.29v-3.48l6.07-5.62a5,5,0,0,0,1.06-1.27,2.3,2.3,0,0,0,.26-1,1.19,1.19,0,0,0-.42-1,1.86,1.86,0,0,0-1.21-.35,2.73,2.73,0,0,0-1.44.41,2.68,2.68,0,0,0-1,1.15l-4.27-2.14a7,7,0,0,1,2.81-2.84,10,10,0,0,1,8-.4,5.51,5.51,0,0,1,2.4,1.85,4.6,4.6,0,0,1,.86,2.76,5.89,5.89,0,0,1-.59,2.6,9.77,9.77,0,0,1-2.29,2.75l-2.4,2.18Z"/><path d="M152.85,166.5a24.24,24.24,0,0,0,2.34-5.58,22.18,22.18,0,0,0,0-11.3,24.26,24.26,0,0,0-2.34-5.58H158a16,16,0,0,1,2.38,5.05,23.82,23.82,0,0,1,0,12.36A16,16,0,0,1,158,166.5Z"/><path d="M93.58,197.92H85.34v-1.55l4.1-3.78a9.09,9.09,0,0,0,1.48-1.72,3.33,3.33,0,0,0,.59-1.83v-.22a2.47,2.47,0,0,0-.58-1.7,2.21,2.21,0,0,0-1.75-.65,2.87,2.87,0,0,0-1,.16,2.3,2.3,0,0,0-.75.45,2.52,2.52,0,0,0-.52.67,4.17,4.17,0,0,0-.33.84l-1.35-.52a5.29,5.29,0,0,1,.5-1.09,3.65,3.65,0,0,1,1.94-1.6,4.61,4.61,0,0,1,1.59-.25,4.65,4.65,0,0,1,1.64.27,3.24,3.24,0,0,1,2,1.91,4,4,0,0,1,.26,1.47,4.36,4.36,0,0,1-.21,1.37,5.32,5.32,0,0,1-.57,1.2,7.25,7.25,0,0,1-.87,1.11q-.51.54-1.11,1.08l-3.38,3h6.61Z"/><path d="M96.37,197.92v-1.33h3.51V186.47h-.13l-3.17,3-.88-1L99,185.36h2.36v11.23h3.24v1.33Z"/><path d="M105.75,200.64l4.7-16h1.3l-4.7,16Z"/><path d="M117.88,198.14a3.55,3.55,0,0,1-3.29-1.71,11.59,11.59,0,0,1,0-9.58,4,4,0,0,1,6.57,0,11.59,11.59,0,0,1,0,9.58A3.55,3.55,0,0,1,117.88,198.14Zm0-1.33a2.46,2.46,0,0,0,1.26-.3,2.33,2.33,0,0,0,.85-.86,4.29,4.29,0,0,0,.48-1.31,8.45,8.45,0,0,0,.15-1.67v-2a8.44,8.44,0,0,0-.15-1.67,4.3,4.3,0,0,0-.48-1.31,2.35,2.35,0,0,0-.85-.86,2.76,2.76,0,0,0-2.52,0,2.35,2.35,0,0,0-.85.86,4.28,4.28,0,0,0-.48,1.31,8.37,8.37,0,0,0-.15,1.67v2a8.37,8.37,0,0,0,.15,1.67,4.26,4.26,0,0,0,.48,1.31,2.33,2.33,0,0,0,.85.86A2.46,2.46,0,0,0,117.88,196.8Z"/><path d="M126.43,197.92l4.81-11.27h-5.36V189h-1.35v-3.64h8.24v1.33l-4.72,11.23Z"/><path d="M134.24,200.64l4.7-16h1.3l-4.7,16Z"/><path d="M150.57,197.92h-8.24v-1.55l4.1-3.78a9.09,9.09,0,0,0,1.48-1.72,3.33,3.33,0,0,0,.59-1.83v-.22a2.47,2.47,0,0,0-.58-1.7,2.21,2.21,0,0,0-1.75-.65,2.87,2.87,0,0,0-1,.16,2.3,2.3,0,0,0-.75.45,2.52,2.52,0,0,0-.52.67,4.17,4.17,0,0,0-.33.84l-1.35-.52a5.29,5.29,0,0,1,.5-1.09,3.65,3.65,0,0,1,1.94-1.6,4.61,4.61,0,0,1,1.59-.25,4.65,4.65,0,0,1,1.64.27,3.24,3.24,0,0,1,2,1.91,4,4,0,0,1,.26,1.47,4.36,4.36,0,0,1-.21,1.37,5.32,5.32,0,0,1-.57,1.2,7.25,7.25,0,0,1-.87,1.11q-.51.54-1.11,1.08l-3.38,3h6.61Z"/><path d="M157.18,198.14a3.55,3.55,0,0,1-3.29-1.71,11.59,11.59,0,0,1,0-9.58,4,4,0,0,1,6.57,0,11.59,11.59,0,0,1,0,9.58A3.55,3.55,0,0,1,157.18,198.14Zm0-1.33a2.46,2.46,0,0,0,1.26-.3,2.33,2.33,0,0,0,.85-.86,4.29,4.29,0,0,0,.48-1.31,8.45,8.45,0,0,0,.15-1.67v-2a8.44,8.44,0,0,0-.15-1.67,4.3,4.3,0,0,0-.48-1.31,2.35,2.35,0,0,0-.85-.86,2.76,2.76,0,0,0-2.52,0,2.35,2.35,0,0,0-.85.86,4.28,4.28,0,0,0-.48,1.31,8.37,8.37,0,0,0-.15,1.67v2a8.37,8.37,0,0,0,.15,1.67,4.26,4.26,0,0,0,.48,1.31,2.33,2.33,0,0,0,.85.86A2.46,2.46,0,0,0,157.18,196.8Z"/><path d="M172.17,197.92h-8.24v-1.55l4.1-3.78a9.09,9.09,0,0,0,1.48-1.72,3.33,3.33,0,0,0,.59-1.83v-.22a2.47,2.47,0,0,0-.58-1.7,2.21,2.21,0,0,0-1.75-.65,2.87,2.87,0,0,0-1,.16,2.3,2.3,0,0,0-.75.45,2.52,2.52,0,0,0-.52.67,4.17,4.17,0,0,0-.33.84l-1.35-.52a5.29,5.29,0,0,1,.5-1.09,3.65,3.65,0,0,1,1.94-1.6,4.61,4.61,0,0,1,1.59-.25,4.65,4.65,0,0,1,1.64.27,3.24,3.24,0,0,1,2,1.91,4,4,0,0,1,.26,1.47,4.36,4.36,0,0,1-.21,1.37,5.32,5.32,0,0,1-.57,1.2,7.25,7.25,0,0,1-.87,1.11q-.51.54-1.11,1.08l-3.38,3h6.61Z"/><path d="M178.77,198.14a3.55,3.55,0,0,1-3.29-1.71,11.59,11.59,0,0,1,0-9.58,4,4,0,0,1,6.57,0,11.59,11.59,0,0,1,0,9.58A3.55,3.55,0,0,1,178.77,198.14Zm0-1.33a2.46,2.46,0,0,0,1.26-.3,2.33,2.33,0,0,0,.85-.86,4.29,4.29,0,0,0,.48-1.31,8.45,8.45,0,0,0,.15-1.67v-2a8.44,8.44,0,0,0-.15-1.67,4.3,4.3,0,0,0-.48-1.31,2.35,2.35,0,0,0-.85-.86,2.76,2.76,0,0,0-2.52,0,2.35,2.35,0,0,0-.85.86,4.28,4.28,0,0,0-.48,1.31,8.37,8.37,0,0,0-.15,1.67v2a8.37,8.37,0,0,0,.15,1.67,4.26,4.26,0,0,0,.48,1.31,2.33,2.33,0,0,0,.85.86A2.46,2.46,0,0,0,178.77,196.8Z"/><path d="M111.44,219.52v-1.33h3.51V208.07h-.13l-3.17,3-.88-1L114.1,207h2.36v11.23h3.24v1.33Z"/><path d="M127.4,219.52v-2.47h-6.07v-1.33l5.26-8.77h2.25v8.84h1.82v1.26h-1.82v2.47Zm-4.64-3.73h4.64v-7.67h-.09Z"/><path d="M134.08,212.34a1,1,0,0,1-1.1-1v-.23a1.1,1.1,0,1,1,2.2,0v.23a1,1,0,0,1-1.1,1Zm0,7.4a1,1,0,0,1-1.1-1v-.23a1.1,1.1,0,1,1,2.2,0v.23a1,1,0,0,1-1.1,1Z"/><path d="M142.11,219.74a3.55,3.55,0,0,1-3.29-1.71,11.59,11.59,0,0,1,0-9.58,4,4,0,0,1,6.57,0,11.59,11.59,0,0,1,0,9.58A3.55,3.55,0,0,1,142.11,219.74Zm0-1.33a2.46,2.46,0,0,0,1.26-.3,2.33,2.33,0,0,0,.85-.86,4.29,4.29,0,0,0,.48-1.31,8.45,8.45,0,0,0,.15-1.67v-2a8.44,8.44,0,0,0-.15-1.67,4.3,4.3,0,0,0-.48-1.31,2.35,2.35,0,0,0-.85-.86,2.76,2.76,0,0,0-2.52,0,2.35,2.35,0,0,0-.85.86,4.28,4.28,0,0,0-.48,1.31,8.37,8.37,0,0,0-.15,1.67v2a8.37,8.37,0,0,0,.15,1.67,4.26,4.26,0,0,0,.48,1.31,2.33,2.33,0,0,0,.85.86A2.46,2.46,0,0,0,142.11,218.4Z"/><path d="M152.91,219.74a3.55,3.55,0,0,1-3.29-1.71,11.59,11.59,0,0,1,0-9.58,4,4,0,0,1,6.57,0,11.59,11.59,0,0,1,0,9.58A3.55,3.55,0,0,1,152.91,219.74Zm0-1.33a2.46,2.46,0,0,0,1.26-.3,2.33,2.33,0,0,0,.85-.86,4.29,4.29,0,0,0,.48-1.31,8.45,8.45,0,0,0,.15-1.67v-2a8.44,8.44,0,0,0-.15-1.67,4.3,4.3,0,0,0-.48-1.31,2.35,2.35,0,0,0-.85-.86,2.76,2.76,0,0,0-2.52,0,2.35,2.35,0,0,0-.85.86,4.28,4.28,0,0,0-.48,1.31,8.37,8.37,0,0,0-.15,1.67v2a8.37,8.37,0,0,0,.15,1.67,4.26,4.26,0,0,0,.48,1.31,2.33,2.33,0,0,0,.85.86A2.46,2.46,0,0,0,152.91,218.4Z"/></g></g></svg>