<svg xmlns="http://www.w3.org/2000/svg" viewBox="0 0 271 271"><defs><style>.cls-1{fill:#ecbc43;stroke:#000;stroke-miterlimit:10;}</style></defs><title>Fichier 7</title><g id="Calque_2" data-name="Calque 2"><g id="Calque_1-2" data-name="Calque 1"><path class="cls-1" d="M154.58,6.79,160.27,11l6.87-1.71a32.09,32.09,0,0,1,35.25,14.6L206,29.95l7,1a32.09,32.09,0,0,1,27,27l1,7,6.06,3.65a32.09,32.09,0,0,1,14.6,35.25L260,110.73l4.21,5.69a32.09,32.09,0,0,1,0,38.15L260,160.27l1.71,6.87a32.09,32.09,0,0,1-14.6,35.25L241.05,206l-1,7a32.09,32.09,0,0,1-27,27l-7,1-3.65,6.06a32.09,32.09,0,0,1-35.25,14.6L160.27,260l-5.69,4.21a32.09,32.09,0,0,1-38.15,0L110.73,260l-6.87,1.71a32.09,32.09,0,0,1-35.25-14.6L65,241.05l-7-1a32.09,32.09,0,0,1-27-27l-1-7-6.06-3.65a32.09,32.09,0,0,1-14.6-35.25L11,160.27l-4.21-5.69a32.09,32.09,0,0,1,0-38.15L11,110.73l-1.71-6.87a32.09,32.09,0,0,1,14.6-35.25L29.95,65l1-7A32.09,32.09,0,0,1,58,31l7-1,3.65-6.06a32.09,32.09,0,0,1,35.25-14.6L110.73,11l5.69-4.21A32.09,32.09,0,0,1,154.58,6.79Z"/><path d="M68.08,106.12a9.55,9.55,0,0,1-3.56,2.66,11.48,11.48,0,0,1-4.6.9,15.25,15.25,0,0,1-4.52-.62,13.73,13.73,0,0,1-4-2.08,35.74,35.74,0,0,1-4.56-4.14,15.22,15.22,0,0,1-6.2-2.74,14.34,14.34,0,0,1,2-24.26A17.27,17.27,0,0,1,50.76,74a17.28,17.28,0,0,1,8.12,1.88,14.56,14.56,0,0,1,5.24,20.9,14.32,14.32,0,0,1-6.6,5.22,3.62,3.62,0,0,0,1.22.9,3.54,3.54,0,0,0,1.38.26,5.43,5.43,0,0,0,3.88-1.8ZM47.58,82.46a6.16,6.16,0,0,0-2.26,2.44,8.57,8.57,0,0,0,0,7.4,6.15,6.15,0,0,0,2.26,2.44,6.31,6.31,0,0,0,6.36,0A6.15,6.15,0,0,0,56.2,92.3a8.56,8.56,0,0,0,0-7.4,6.16,6.16,0,0,0-2.26-2.44,6.31,6.31,0,0,0-6.36,0Z"/><path d="M93.64,80.72V102.6H85v-2.08a7.73,7.73,0,0,1-2.8,1.86,9.32,9.32,0,0,1-3.4.62,9,9,0,0,1-6.68-2.54q-2.52-2.54-2.52-7.66V80.72h9V91.24a5.44,5.44,0,0,0,.72,3.2,2.48,2.48,0,0,0,2.12,1,2.75,2.75,0,0,0,2.2-1.06A5.19,5.19,0,0,0,84.6,91V80.72Z"/><path d="M116.24,82.9q3,2.58,3,7.94V102.6h-8.4V99.72q-1.56,3.28-6.2,3.28a9.9,9.9,0,0,1-4.42-.9,6.34,6.34,0,0,1-3.7-5.9A5.56,5.56,0,0,1,99,91.28q2.48-1.68,7.52-1.68h3.64Q109.76,87,106.08,87a10.33,10.33,0,0,0-3,.46,8.44,8.44,0,0,0-2.6,1.26l-2.88-6A15.88,15.88,0,0,1,102.14,81a21.94,21.94,0,0,1,5.3-.66Q113.2,80.32,116.24,82.9ZM109.12,97a3,3,0,0,0,1.12-1.56V94H108q-2.76,0-2.76,1.84a1.59,1.59,0,0,0,.58,1.26,2.33,2.33,0,0,0,1.58.5A3,3,0,0,0,109.12,97Z"/><path d="M144.9,82.76q2.46,2.44,2.46,7.36V102.6h-9V91.68q0-3.76-2.68-3.76A3.13,3.13,0,0,0,133.18,89a5,5,0,0,0-.94,3.34V102.6h-9V80.72h8.6v2.16a8.35,8.35,0,0,1,3-1.92,10.14,10.14,0,0,1,3.64-.64A8.83,8.83,0,0,1,144.9,82.76Z"/><path d="M167.4,101.84a11.29,11.29,0,0,1-5.56,1.16q-4.6,0-7.08-2.22t-2.48-6.66v-5.6h-3v-6.6h3V75.8h9v6.12h4.48v6.6h-4.48V94a2.2,2.2,0,0,0,.52,1.56,1.77,1.77,0,0,0,1.36.56,3.54,3.54,0,0,0,2-.6Z"/><path d="M193.6,80.72V102.6H185v-2.08a7.73,7.73,0,0,1-2.8,1.86,9.32,9.32,0,0,1-3.4.62,9,9,0,0,1-6.68-2.54q-2.52-2.54-2.52-7.66V80.72h9V91.24a5.44,5.44,0,0,0,.72,3.2,2.48,2.48,0,0,0,2.12,1,2.75,2.75,0,0,0,2.2-1.06,5.19,5.19,0,0,0,.88-3.34V80.72Z"/><path d="M232.9,82.76q2.38,2.44,2.38,7.36V102.6h-9V91.68q0-3.76-2.44-3.76a2.53,2.53,0,0,0-2.06,1,4.81,4.81,0,0,0-.78,3V102.6h-9V91.68q0-3.76-2.44-3.76a2.53,2.53,0,0,0-2.06,1,4.81,4.81,0,0,0-.78,3V102.6h-9V80.72h8.6v2a8.4,8.4,0,0,1,6.2-2.44,9.27,9.27,0,0,1,4,.82,6.94,6.94,0,0,1,2.88,2.5,8.91,8.91,0,0,1,3.2-2.46,9.78,9.78,0,0,1,4.12-.86A8.45,8.45,0,0,1,232.9,82.76Z"/><path d="M62,141.38a13.9,13.9,0,0,1-5.58-5.2,15.24,15.24,0,0,1,0-15.16,13.91,13.91,0,0,1,5.58-5.2A17,17,0,0,1,70,114a17.56,17.56,0,0,1,7.28,1.44,13.51,13.51,0,0,1,5.28,4.16l-6,5.32a7.65,7.65,0,0,0-6.12-3.28,6.25,6.25,0,0,0-4.76,1.9,8.12,8.12,0,0,0,0,10.2,6.25,6.25,0,0,0,4.76,1.9,7.65,7.65,0,0,0,6.12-3.28l6,5.32a13.51,13.51,0,0,1-5.28,4.16A17.56,17.56,0,0,1,70,143.24,17,17,0,0,1,62,141.38Z"/><path d="M85.56,117.66a4.38,4.38,0,0,1,0-6.6,5.8,5.8,0,0,1,3.94-1.3,6,6,0,0,1,4,1.24,4,4,0,0,1,1.48,3.2,4.41,4.41,0,0,1-1.48,3.42,5.68,5.68,0,0,1-4,1.34A5.8,5.8,0,0,1,85.56,117.66ZM85,120.72h9V142.6H85Z"/><path d="M119.72,122.76q2.46,2.44,2.46,7.36V142.6h-9V131.68q0-3.76-2.68-3.76A3.13,3.13,0,0,0,108,129a5,5,0,0,0-.94,3.34V142.6H98V120.72h8.6v2.16a8.36,8.36,0,0,1,3-1.92,10.16,10.16,0,0,1,3.64-.64A8.83,8.83,0,0,1,119.72,122.76Z"/><path d="M149.66,133.76h-15.2a3.68,3.68,0,0,0,1.6,1.9,5.44,5.44,0,0,0,2.8.66,7.06,7.06,0,0,0,2.42-.36,8.46,8.46,0,0,0,2.14-1.24l4.72,4.76q-3.2,3.52-9.56,3.52a15.72,15.72,0,0,1-7-1.46,11,11,0,0,1-4.64-4.06,11.32,11.32,0,0,1,0-11.7,11.08,11.08,0,0,1,4.44-4,14.62,14.62,0,0,1,12.4-.12,10.41,10.41,0,0,1,4.36,3.88,11.21,11.21,0,0,1,1.62,6.12Q149.78,131.84,149.66,133.76Zm-14.16-6.52a3.61,3.61,0,0,0-1.2,2.16h7a3.68,3.68,0,0,0-1.2-2.14,3.46,3.46,0,0,0-2.32-.78A3.52,3.52,0,0,0,135.5,127.24Z"/><path d="M187.92,122.76q2.38,2.44,2.38,7.36V142.6h-9V131.68q0-3.76-2.44-3.76a2.52,2.52,0,0,0-2.06,1,4.81,4.81,0,0,0-.78,3V142.6h-9V131.68q0-3.76-2.44-3.76a2.52,2.52,0,0,0-2.06,1,4.81,4.81,0,0,0-.78,3V142.6h-9V120.72h8.6v2a8.4,8.4,0,0,1,6.2-2.44,9.26,9.26,0,0,1,4,.82,6.94,6.94,0,0,1,2.88,2.5,8.9,8.9,0,0,1,3.2-2.46,9.79,9.79,0,0,1,4.12-.86A8.45,8.45,0,0,1,187.92,122.76Z"/><path d="M212.82,122.9q3,2.58,3,7.94V142.6h-8.4v-2.88q-1.56,3.28-6.2,3.28a9.9,9.9,0,0,1-4.42-.9,6.34,6.34,0,0,1-3.7-5.9,5.56,5.56,0,0,1,2.48-4.92q2.48-1.68,7.52-1.68h3.64q-.44-2.56-4.12-2.56a10.35,10.35,0,0,0-3,.46,8.46,8.46,0,0,0-2.6,1.26l-2.88-6a15.86,15.86,0,0,1,4.54-1.82,21.93,21.93,0,0,1,5.3-.66Q209.78,120.32,212.82,122.9ZM205.7,137a3,3,0,0,0,1.12-1.56V134h-2.24q-2.76,0-2.76,1.84a1.59,1.59,0,0,0,.58,1.26,2.33,2.33,0,0,0,1.58.5A3,3,0,0,0,205.7,137Z"/><path d="M95.38,200.41H87.13v-1.55l4.1-3.78a9.09,9.09,0,0,0,1.48-1.72,3.33,3.33,0,0,0,.59-1.83v-.22a2.47,2.47,0,0,0-.58-1.7A2.21,2.21,0,0,0,91,189a2.87,2.87,0,0,0-1,.16,2.3,2.3,0,0,0-.75.45,2.52,2.52,0,0,0-.52.67,4.17,4.17,0,0,0-.33.84L87,190.57a5.29,5.29,0,0,1,.5-1.09,3.65,3.65,0,0,1,1.94-1.6,4.61,4.61,0,0,1,1.59-.25,4.65,4.65,0,0,1,1.64.27,3.24,3.24,0,0,1,2,1.91,4,4,0,0,1,.26,1.47,4.36,4.36,0,0,1-.21,1.37,5.32,5.32,0,0,1-.57,1.2,7.25,7.25,0,0,1-.87,1.11q-.51.54-1.11,1.08l-3.38,3h6.61Z"/><path d="M106.18,200.41H97.93v-1.55l4.1-3.78a9.09,9.09,0,0,0,1.48-1.72,3.33,3.33,0,0,0,.59-1.83v-.22a2.47,2.47,0,0,0-.58-1.7,2.21,2.21,0,0,0-1.75-.65,2.87,2.87,0,0,0-1,.16,2.3,2.3,0,0,0-.75.45,2.52,2.52,0,0,0-.52.67,4.17,4.17,0,0,0-.33.84l-1.35-.52a5.29,5.29,0,0,1,.5-1.09,3.65,3.65,0,0,1,1.94-1.6,4.61,4.61,0,0,1,1.59-.25,4.65,4.65,0,0,1,1.64.27,3.24,3.24,0,0,1,2,1.91,4,4,0,0,1,.26,1.47,4.36,4.36,0,0,1-.21,1.37,5.32,5.32,0,0,1-.57,1.2,7.25,7.25,0,0,1-.87,1.11q-.51.54-1.11,1.08l-3.38,3h6.61Z"/><path d="M107.54,203.13l4.7-16h1.3l-4.7,16Z"/><path d="M119.68,200.63a3.55,3.55,0,0,1-3.29-1.71,11.59,11.59,0,0,1,0-9.58,4,4,0,0,1,6.57,0,11.59,11.59,0,0,1,0,9.58A3.55,3.55,0,0,1,119.68,200.63Zm0-1.33a2.46,2.46,0,0,0,1.26-.3,2.33,2.33,0,0,0,.85-.86,4.29,4.29,0,0,0,.48-1.31,8.45,8.45,0,0,0,.15-1.67v-2a8.44,8.44,0,0,0-.15-1.67,4.3,4.3,0,0,0-.48-1.31,2.35,2.35,0,0,0-.85-.86,2.76,2.76,0,0,0-2.52,0,2.35,2.35,0,0,0-.85.86,4.28,4.28,0,0,0-.48,1.31,8.37,8.37,0,0,0-.15,1.67v2a8.37,8.37,0,0,0,.15,1.67,4.26,4.26,0,0,0,.48,1.31,2.33,2.33,0,0,0,.85.86A2.46,2.46,0,0,0,119.68,199.3Z"/><path d="M128.23,200.41,133,189.14h-5.36v2.34h-1.35v-3.64h8.24v1.33l-4.72,11.23Z"/><path d="M136,203.13l4.7-16H142l-4.7,16Z"/><path d="M152.36,200.41h-8.24v-1.55l4.1-3.78a9.09,9.09,0,0,0,1.48-1.72,3.33,3.33,0,0,0,.59-1.83v-.22a2.47,2.47,0,0,0-.58-1.7A2.21,2.21,0,0,0,148,189a2.87,2.87,0,0,0-1,.16,2.3,2.3,0,0,0-.75.45,2.52,2.52,0,0,0-.52.67,4.17,4.17,0,0,0-.33.84l-1.35-.52a5.29,5.29,0,0,1,.5-1.09,3.65,3.65,0,0,1,1.94-1.6,4.61,4.61,0,0,1,1.59-.25,4.65,4.65,0,0,1,1.64.27,3.24,3.24,0,0,1,2,1.91,4,4,0,0,1,.26,1.47,4.36,4.36,0,0,1-.21,1.37,5.32,5.32,0,0,1-.57,1.2,7.25,7.25,0,0,1-.87,1.11q-.51.54-1.11,1.08l-3.38,3h6.61Z"/><path d="M159,200.63a3.55,3.55,0,0,1-3.29-1.71,11.59,11.59,0,0,1,0-9.58,4,4,0,0,1,6.57,0,11.59,11.59,0,0,1,0,9.58A3.55,3.55,0,0,1,159,200.63Zm0-1.33a2.46,2.46,0,0,0,1.26-.3,2.33,2.33,0,0,0,.85-.86,4.29,4.29,0,0,0,.48-1.31,8.45,8.45,0,0,0,.15-1.67v-2a8.44,8.44,0,0,0-.15-1.67,4.3,4.3,0,0,0-.48-1.31,2.35,2.35,0,0,0-.85-.86,2.76,2.76,0,0,0-2.52,0,2.35,2.35,0,0,0-.85.86,4.28,4.28,0,0,0-.48,1.31,8.37,8.37,0,0,0-.15,1.67v2a8.37,8.37,0,0,0,.15,1.67,4.26,4.26,0,0,0,.48,1.31,2.33,2.33,0,0,0,.85.86A2.46,2.46,0,0,0,159,199.3Z"/><path d="M174,200.41h-8.24v-1.55l4.1-3.78a9.09,9.09,0,0,0,1.48-1.72,3.33,3.33,0,0,0,.59-1.83v-.22a2.47,2.47,0,0,0-.58-1.7,2.21,2.21,0,0,0-1.75-.65,2.87,2.87,0,0,0-1,.16,2.3,2.3,0,0,0-.75.45,2.52,2.52,0,0,0-.52.67,4.17,4.17,0,0,0-.33.84l-1.35-.52a5.29,5.29,0,0,1,.5-1.09,3.65,3.65,0,0,1,1.94-1.6,4.61,4.61,0,0,1,1.59-.25,4.65,4.65,0,0,1,1.64.27,3.24,3.24,0,0,1,2,1.91,4,4,0,0,1,.26,1.47,4.36,4.36,0,0,1-.21,1.37,5.32,5.32,0,0,1-.57,1.2,7.25,7.25,0,0,1-.87,1.11q-.51.54-1.11,1.08l-3.38,3H174Z"/><path d="M180.57,200.63a3.55,3.55,0,0,1-3.29-1.71,11.59,11.59,0,0,1,0-9.58,4,4,0,0,1,6.57,0,11.59,11.59,0,0,1,0,9.58A3.55,3.55,0,0,1,180.57,200.63Zm0-1.33a2.46,2.46,0,0,0,1.26-.3,2.33,2.33,0,0,0,.85-.86,4.29,4.29,0,0,0,.48-1.31,8.45,8.45,0,0,0,.15-1.67v-2a8.44,8.44,0,0,0-.15-1.67,4.3,4.3,0,0,0-.48-1.31,2.35,2.35,0,0,0-.85-.86,2.76,2.76,0,0,0-2.52,0,2.35,2.35,0,0,0-.85.86,4.28,4.28,0,0,0-.48,1.31,8.37,8.37,0,0,0-.15,1.67v2a8.37,8.37,0,0,0,.15,1.67,4.26,4.26,0,0,0,.48,1.31,2.33,2.33,0,0,0,.85.86A2.46,2.46,0,0,0,180.57,199.3Z"/><path d="M113.23,222v-1.33h3.51V210.56h-.13l-3.17,3-.88-1,3.33-3.11h2.36v11.23h3.24V222Z"/><path d="M127.85,222.23a5.79,5.79,0,0,1-1.89-.28,4,4,0,0,1-1.36-.76,3.14,3.14,0,0,1-.83-1.15,3.68,3.68,0,0,1-.28-1.44,2.9,2.9,0,0,1,.7-2.05,3.79,3.79,0,0,1,1.84-1.06v-.14a3.27,3.27,0,0,1-1.58-1.11,3,3,0,0,1-.58-1.84,2.81,2.81,0,0,1,1-2.29,5.46,5.46,0,0,1,5.87,0,2.81,2.81,0,0,1,1,2.29,3,3,0,0,1-.58,1.84,3.27,3.27,0,0,1-1.58,1.11v.14a3.79,3.79,0,0,1,1.84,1.06,2.89,2.89,0,0,1,.7,2.05,3.68,3.68,0,0,1-.28,1.44,3.15,3.15,0,0,1-.83,1.15,4,4,0,0,1-1.36.76A5.79,5.79,0,0,1,127.85,222.23Zm0-1.33a3.15,3.15,0,0,0,2-.58,2,2,0,0,0,.72-1.66v-.38a2,2,0,0,0-.72-1.66,3.84,3.84,0,0,0-4.07,0,2,2,0,0,0-.72,1.66v.38a2,2,0,0,0,.72,1.66A3.15,3.15,0,0,0,127.85,220.9Zm0-6.12a2.79,2.79,0,0,0,1.8-.5,1.79,1.79,0,0,0,.61-1.47v-.27a1.79,1.79,0,0,0-.61-1.47,3.48,3.48,0,0,0-3.6,0,1.79,1.79,0,0,0-.61,1.47v.27a1.79,1.79,0,0,0,.61,1.47A2.79,2.79,0,0,0,127.85,214.78Z"/><path d="M135.88,214.83a1,1,0,0,1-1.1-1v-.23a1.1,1.1,0,1,1,2.2,0v.23a1,1,0,0,1-1.1,1Zm0,7.4a1,1,0,0,1-1.1-1V221a1.1,1.1,0,1,1,2.2,0v.23a1,1,0,0,1-1.1,1Z"/><path d="M143.9,222.23a3.55,3.55,0,0,1-3.29-1.71,11.59,11.59,0,0,1,0-9.58,4,4,0,0,1,6.57,0,11.59,11.59,0,0,1,0,9.58A3.55,3.55,0,0,1,143.9,222.23Zm0-1.33a2.46,2.46,0,0,0,1.26-.3,2.33,2.33,0,0,0,.85-.86,4.29,4.29,0,0,0,.48-1.31,8.45,8.45,0,0,0,.15-1.67v-2a8.44,8.44,0,0,0-.15-1.67,4.3,4.3,0,0,0-.48-1.31,2.35,2.35,0,0,0-.85-.86,2.76,2.76,0,0,0-2.52,0,2.35,2.35,0,0,0-.85.86,4.28,4.28,0,0,0-.48,1.31,8.37,8.37,0,0,0-.15,1.67v2a8.37,8.37,0,0,0,.15,1.67,4.26,4.26,0,0,0,.48,1.31,2.33,2.33,0,0,0,.85.86A2.46,2.46,0,0,0,143.9,220.9Z"/><path d="M154.7,222.23a3.55,3.55,0,0,1-3.29-1.71,11.59,11.59,0,0,1,0-9.58,4,4,0,0,1,6.57,0,11.59,11.59,0,0,1,0,9.58A3.55,3.55,0,0,1,154.7,222.23Zm0-1.33a2.46,2.46,0,0,0,1.26-.3,2.33,2.33,0,0,0,.85-.86,4.29,4.29,0,0,0,.48-1.31,8.45,8.45,0,0,0,.15-1.67v-2a8.44,8.44,0,0,0-.15-1.67,4.3,4.3,0,0,0-.48-1.31,2.35,2.35,0,0,0-.85-.86,2.76,2.76,0,0,0-2.52,0,2.35,2.35,0,0,0-.85.86,4.28,4.28,0,0,0-.48,1.31,8.37,8.37,0,0,0-.15,1.67v2a8.37,8.37,0,0,0,.15,1.67,4.26,4.26,0,0,0,.48,1.31,2.33,2.33,0,0,0,.85.86A2.46,2.46,0,0,0,154.7,220.9Z"/></g></g></svg>