<svg xmlns="http://www.w3.org/2000/svg" viewBox="0 0 271 271"><defs><style>.cls-1{fill:#2e6eeb;stroke:#000;stroke-miterlimit:10;}</style></defs><title>Fichier 9</title><g id="Calque_2" data-name="Calque 2"><g id="Calque_1-2" data-name="Calque 1"><path class="cls-1" d="M154.58,6.79,160.27,11l6.87-1.71a32.09,32.09,0,0,1,35.25,14.6L206,29.95l7,1a32.09,32.09,0,0,1,27,27l1,7,6.06,3.65a32.09,32.09,0,0,1,14.6,35.25L260,110.73l4.21,5.69a32.09,32.09,0,0,1,0,38.15L260,160.27l1.71,6.87a32.09,32.09,0,0,1-14.6,35.25L241.05,206l-1,7a32.09,32.09,0,0,1-27,27l-7,1-3.65,6.06a32.09,32.09,0,0,1-35.25,14.6L160.27,260l-5.69,4.21a32.09,32.09,0,0,1-38.15,0L110.73,260l-6.87,1.71a32.09,32.09,0,0,1-35.25-14.6L65,241.05l-7-1a32.09,32.09,0,0,1-27-27l-1-7-6.06-3.65a32.09,32.09,0,0,1-14.6-35.25L11,160.27l-4.21-5.69a32.09,32.09,0,0,1,0-38.15L11,110.73l-1.71-6.87a32.09,32.09,0,0,1,14.6-35.25L29.95,65l1-7A32.09,32.09,0,0,1,58,31l7-1,3.65-6.06a32.09,32.09,0,0,1,35.25-14.6L110.73,11l5.69-4.21A32.09,32.09,0,0,1,154.58,6.79Z"/><path d="M44.32,92a13.91,13.91,0,0,1-5.58-5.2,15.24,15.24,0,0,1,0-15.16,13.91,13.91,0,0,1,5.58-5.2,17,17,0,0,1,8-1.86A17.56,17.56,0,0,1,59.6,66a13.51,13.51,0,0,1,5.28,4.16l-6,5.32A7.65,7.65,0,0,0,52.8,72.2,6.25,6.25,0,0,0,48,74.1a8.12,8.12,0,0,0,0,10.2,6.25,6.25,0,0,0,4.76,1.9,7.64,7.64,0,0,0,6.12-3.28l6,5.32A13.51,13.51,0,0,1,59.6,92.4a17.56,17.56,0,0,1-7.28,1.44A17,17,0,0,1,44.32,92Z"/><path d="M89.88,84.36H74.67a3.68,3.68,0,0,0,1.6,1.9,5.44,5.44,0,0,0,2.8.66,7.06,7.06,0,0,0,2.42-.36,8.48,8.48,0,0,0,2.14-1.24l4.72,4.76q-3.2,3.52-9.56,3.52a15.72,15.72,0,0,1-7-1.46,11,11,0,0,1-4.64-4.06,11.32,11.32,0,0,1,0-11.7,11.07,11.07,0,0,1,4.44-4A14.62,14.62,0,0,1,84,72.24a10.41,10.41,0,0,1,4.36,3.88A11.21,11.21,0,0,1,90,82.24Q90,82.44,89.88,84.36ZM75.72,77.84A3.61,3.61,0,0,0,74.51,80h7a3.69,3.69,0,0,0-1.2-2.14A3.47,3.47,0,0,0,78,77.08,3.52,3.52,0,0,0,75.72,77.84Z"/><path d="M92.83,63.52h9V93.2h-9Z"/><path d="M105.87,63.52h9V93.2h-9Z"/><path d="M142.83,71.32V93.2h-8.6V91.12a7.74,7.74,0,0,1-2.8,1.86,9.32,9.32,0,0,1-3.4.62,9,9,0,0,1-6.68-2.54q-2.52-2.54-2.52-7.66V71.32h9V81.84a5.44,5.44,0,0,0,.72,3.2,2.48,2.48,0,0,0,2.12,1,2.75,2.75,0,0,0,2.2-1.06,5.19,5.19,0,0,0,.88-3.34V71.32Z"/><path d="M182.13,73.36q2.38,2.44,2.38,7.36V93.2h-9V82.28q0-3.76-2.44-3.76a2.52,2.52,0,0,0-2.06,1,4.8,4.8,0,0,0-.78,3V93.2h-9V82.28q0-3.76-2.44-3.76a2.52,2.52,0,0,0-2.06,1,4.8,4.8,0,0,0-.78,3V93.2h-9V71.32h8.6v2a8.4,8.4,0,0,1,6.2-2.44,9.28,9.28,0,0,1,4,.82,6.94,6.94,0,0,1,2.88,2.5,8.9,8.9,0,0,1,3.2-2.46,9.78,9.78,0,0,1,4.12-.86A8.45,8.45,0,0,1,182.13,73.36Z"/><path d="M193.85,92.14a11.24,11.24,0,0,1-4.54-4,11.29,11.29,0,0,1,0-11.72,11.1,11.1,0,0,1,4.54-4,15.66,15.66,0,0,1,13.12,0,11,11,0,0,1,4.52,4,11.41,11.41,0,0,1,0,11.72,11.09,11.09,0,0,1-4.52,4,15.47,15.47,0,0,1-13.12,0Zm9.1-6.72a4.67,4.67,0,0,0,1-3.18,4.59,4.59,0,0,0-1-3.16,3.49,3.49,0,0,0-5.12,0,4.58,4.58,0,0,0-1,3.16,4.66,4.66,0,0,0,1,3.18,3.45,3.45,0,0,0,5.12,0Z"/><path d="M215.75,78.24h12V85h-12Z"/><path d="M66,113.36q2.46,2.44,2.46,7.36V133.2h-9V122.28q0-3.76-2.68-3.76a3.14,3.14,0,0,0-2.46,1.06,5,5,0,0,0-.94,3.34V133.2h-9V111.32h8.6v2.16a8.36,8.36,0,0,1,3-1.92,10.17,10.17,0,0,1,3.64-.64A8.83,8.83,0,0,1,66,113.36Z"/><path d="M73,108.26a4.38,4.38,0,0,1,0-6.6,5.8,5.8,0,0,1,3.94-1.3,6,6,0,0,1,4,1.24,4,4,0,0,1,1.48,3.2,4.41,4.41,0,0,1-1.48,3.42,5.67,5.67,0,0,1-4,1.34A5.8,5.8,0,0,1,73,108.26Zm-.58,3.06h9V133.2h-9Z"/><path d="M104.06,113.5q3,2.58,3,7.94V133.2H98.7v-2.88q-1.56,3.28-6.2,3.28a9.9,9.9,0,0,1-4.42-.9,6.34,6.34,0,0,1-3.7-5.9,5.57,5.57,0,0,1,2.48-4.92q2.48-1.68,7.52-1.68H98q-.44-2.56-4.12-2.56a10.36,10.36,0,0,0-3,.46,8.45,8.45,0,0,0-2.6,1.26l-2.88-6A15.89,15.89,0,0,1,90,111.58a21.9,21.9,0,0,1,5.3-.66Q101,110.92,104.06,113.5Zm-7.12,14.14a3,3,0,0,0,1.12-1.56v-1.52H95.82q-2.76,0-2.76,1.84a1.59,1.59,0,0,0,.58,1.26,2.34,2.34,0,0,0,1.58.5A3,3,0,0,0,96.94,127.64Z"/><path d="M111,103.52h9V133.2h-9Z"/><path d="M127.09,133a15.83,15.83,0,0,1-4.4-1.56l2.48-6a13,13,0,0,0,3.6,1.44,16.63,16.63,0,0,0,4,.52,6.29,6.29,0,0,0,2.18-.26.84.84,0,0,0,.62-.78q0-.52-.78-.72a21.2,21.2,0,0,0-2.54-.4,33.41,33.41,0,0,1-4.56-.82,7.15,7.15,0,0,1-3.3-1.94A5.62,5.62,0,0,1,123,118.4a6.1,6.1,0,0,1,1.28-3.8,8.62,8.62,0,0,1,3.82-2.68,16.67,16.67,0,0,1,6.1-1,25.57,25.57,0,0,1,4.86.46,14.83,14.83,0,0,1,4.06,1.34l-2.48,6a12.8,12.8,0,0,0-6.32-1.6q-3,0-3,1,0,.52.8.74a18.61,18.61,0,0,0,2.52.42,30.73,30.73,0,0,1,4.54.84,7.32,7.32,0,0,1,3.28,2,5.62,5.62,0,0,1,1.42,4.12,6,6,0,0,1-1.28,3.72,8.63,8.63,0,0,1-3.84,2.68,17.06,17.06,0,0,1-6.2,1A25.52,25.52,0,0,1,127.09,133Z"/><path d="M163.75,132.16a11.14,11.14,0,0,1-4.6-4,11.21,11.21,0,0,1,0-11.74,11.19,11.19,0,0,1,4.6-4,14.94,14.94,0,0,1,6.66-1.44,13,13,0,0,1,6.84,1.72,8.93,8.93,0,0,1,3.92,4.76l-7,3.44q-1.28-2.88-3.8-2.88a3.51,3.51,0,0,0-2.66,1.12,4.42,4.42,0,0,0-1.06,3.16,4.48,4.48,0,0,0,1.06,3.2,3.51,3.51,0,0,0,2.66,1.12q2.52,0,3.8-2.88l7,3.44a8.92,8.92,0,0,1-3.92,4.76,13,13,0,0,1-6.84,1.72A14.94,14.94,0,0,1,163.75,132.16Z"/><path d="M206.21,124.36H191a3.67,3.67,0,0,0,1.6,1.9,5.43,5.43,0,0,0,2.8.66,7.05,7.05,0,0,0,2.42-.36,8.44,8.44,0,0,0,2.14-1.24l4.72,4.76q-3.2,3.52-9.56,3.52a15.72,15.72,0,0,1-7-1.46,11,11,0,0,1-4.64-4.06,11.31,11.31,0,0,1,0-11.7,11.07,11.07,0,0,1,4.44-4,14.62,14.62,0,0,1,12.4-.12,10.4,10.4,0,0,1,4.36,3.88,11.21,11.21,0,0,1,1.62,6.12Q206.33,122.44,206.21,124.36Zm-14.16-6.52a3.61,3.61,0,0,0-1.2,2.16h7a3.68,3.68,0,0,0-1.2-2.14,3.46,3.46,0,0,0-2.32-.78A3.53,3.53,0,0,0,192.05,117.84Z"/><path d="M209,118.24h12V125H209Z"/><path d="M66.87,150.92v8a13.75,13.75,0,0,0-2-.16q-4.64,0-4.64,4.72v9.72h-9V151.32h8.6v2.36Q62.2,150.92,66.87,150.92Z"/><path d="M92.4,164.36H77.19a3.68,3.68,0,0,0,1.6,1.9,5.44,5.44,0,0,0,2.8.66,7.06,7.06,0,0,0,2.42-.36,8.46,8.46,0,0,0,2.14-1.24l4.72,4.76q-3.2,3.52-9.56,3.52a15.72,15.72,0,0,1-7-1.46,11,11,0,0,1-4.64-4.06,11.32,11.32,0,0,1,0-11.7,11.08,11.08,0,0,1,4.44-4,14.62,14.62,0,0,1,12.4-.12,10.41,10.41,0,0,1,4.36,3.88,11.21,11.21,0,0,1,1.62,6.12Q92.51,162.44,92.4,164.36Zm-14.16-6.52A3.61,3.61,0,0,0,77,160h7a3.68,3.68,0,0,0-1.2-2.14,3.46,3.46,0,0,0-2.32-.78A3.52,3.52,0,0,0,78.24,157.84Z"/><path d="M130.66,153.36q2.38,2.44,2.38,7.36V173.2h-9V162.28q0-3.76-2.44-3.76a2.52,2.52,0,0,0-2.06,1,4.81,4.81,0,0,0-.78,3V173.2h-9V162.28q0-3.76-2.44-3.76a2.52,2.52,0,0,0-2.06,1,4.81,4.81,0,0,0-.78,3V173.2h-9V151.32H104v2a8.4,8.4,0,0,1,6.2-2.44,9.26,9.26,0,0,1,4,.82,6.94,6.94,0,0,1,2.88,2.5,8.9,8.9,0,0,1,3.2-2.46,9.79,9.79,0,0,1,4.12-.86A8.45,8.45,0,0,1,130.66,153.36Z"/><path d="M142.37,172.14a11.22,11.22,0,0,1-4.54-4,11.29,11.29,0,0,1,0-11.72,11.09,11.09,0,0,1,4.54-4,15.66,15.66,0,0,1,13.12,0,11,11,0,0,1,4.52,4,11.41,11.41,0,0,1,0,11.72,11.09,11.09,0,0,1-4.52,4,15.47,15.47,0,0,1-13.12,0Zm9.1-6.72a4.67,4.67,0,0,0,1-3.18,4.59,4.59,0,0,0-1-3.16,3.49,3.49,0,0,0-5.12,0,4.58,4.58,0,0,0-1,3.16,4.66,4.66,0,0,0,1,3.18,3.45,3.45,0,0,0,5.12,0Z"/><path d="M186.17,153.36q2.46,2.44,2.46,7.36V173.2h-9V162.28q0-3.76-2.68-3.76a3.13,3.13,0,0,0-2.46,1.06,5,5,0,0,0-.94,3.34V173.2h-9V151.32h8.6v2.16a8.36,8.36,0,0,1,3-1.92,10.16,10.16,0,0,1,3.64-.64A8.83,8.83,0,0,1,186.17,153.36Z"/><path d="M216.51,151.32l-9,22.32a12.65,12.65,0,0,1-4.28,6,11,11,0,0,1-6.28,1.72,13.24,13.24,0,0,1-3.7-.54,8.31,8.31,0,0,1-2.94-1.42l3-6.2a5.94,5.94,0,0,0,1.54.84,4.75,4.75,0,0,0,1.66.32,2.8,2.8,0,0,0,2.24-.88l-9.2-22.16h9.28L203.35,163l4.6-11.72Z"/><path d="M86.2,200.41v-1.33h3.51V189h-.13l-3.17,3-.88-1,3.33-3.11h2.36v11.23h3.24v1.33Z"/><path d="M98.57,200.41l4.81-11.27H98v2.34H96.66v-3.64h8.24v1.33l-4.72,11.23Z"/><path d="M106.38,203.13l4.7-16h1.3l-4.7,16Z"/><path d="M118.51,200.63a3.55,3.55,0,0,1-3.29-1.71,11.59,11.59,0,0,1,0-9.58,4,4,0,0,1,6.57,0,11.59,11.59,0,0,1,0,9.58A3.55,3.55,0,0,1,118.51,200.63Zm0-1.33a2.46,2.46,0,0,0,1.26-.3,2.33,2.33,0,0,0,.85-.86,4.29,4.29,0,0,0,.48-1.31,8.45,8.45,0,0,0,.15-1.67v-2a8.44,8.44,0,0,0-.15-1.67,4.3,4.3,0,0,0-.48-1.31,2.35,2.35,0,0,0-.85-.86,2.76,2.76,0,0,0-2.52,0,2.35,2.35,0,0,0-.85.86,4.28,4.28,0,0,0-.48,1.31,8.37,8.37,0,0,0-.15,1.67v2a8.37,8.37,0,0,0,.15,1.67,4.26,4.26,0,0,0,.48,1.31,2.33,2.33,0,0,0,.85.86A2.46,2.46,0,0,0,118.51,199.3Z"/><path d="M127.06,200.41l4.81-11.27H126.5v2.34h-1.35v-3.64h8.24v1.33l-4.72,11.23Z"/><path d="M134.87,203.13l4.7-16h1.3l-4.7,16Z"/><path d="M151.2,200.41H143v-1.55l4.1-3.78a9.09,9.09,0,0,0,1.48-1.72,3.33,3.33,0,0,0,.59-1.83v-.22a2.47,2.47,0,0,0-.58-1.7,2.21,2.21,0,0,0-1.75-.65,2.87,2.87,0,0,0-1,.16,2.3,2.3,0,0,0-.75.45,2.52,2.52,0,0,0-.52.67,4.17,4.17,0,0,0-.33.84l-1.35-.52a5.29,5.29,0,0,1,.5-1.09,3.65,3.65,0,0,1,1.94-1.6,4.61,4.61,0,0,1,1.59-.25,4.65,4.65,0,0,1,1.64.27,3.24,3.24,0,0,1,2,1.91,4,4,0,0,1,.26,1.47,4.36,4.36,0,0,1-.21,1.37,5.32,5.32,0,0,1-.57,1.2,7.25,7.25,0,0,1-.87,1.11q-.51.54-1.11,1.08l-3.38,3h6.61Z"/><path d="M157.81,200.63a3.55,3.55,0,0,1-3.29-1.71,11.59,11.59,0,0,1,0-9.58,4,4,0,0,1,6.57,0,11.59,11.59,0,0,1,0,9.58A3.55,3.55,0,0,1,157.81,200.63Zm0-1.33a2.46,2.46,0,0,0,1.26-.3,2.33,2.33,0,0,0,.85-.86,4.29,4.29,0,0,0,.48-1.31,8.45,8.45,0,0,0,.15-1.67v-2a8.44,8.44,0,0,0-.15-1.67,4.3,4.3,0,0,0-.48-1.31,2.35,2.35,0,0,0-.85-.86,2.76,2.76,0,0,0-2.52,0,2.35,2.35,0,0,0-.85.86,4.28,4.28,0,0,0-.48,1.31,8.37,8.37,0,0,0-.15,1.67v2a8.37,8.37,0,0,0,.15,1.67,4.26,4.26,0,0,0,.48,1.31,2.33,2.33,0,0,0,.85.86A2.46,2.46,0,0,0,157.81,199.3Z"/><path d="M172.8,200.41h-8.24v-1.55l4.1-3.78a9.09,9.09,0,0,0,1.48-1.72,3.33,3.33,0,0,0,.59-1.83v-.22a2.47,2.47,0,0,0-.58-1.7,2.21,2.21,0,0,0-1.75-.65,2.87,2.87,0,0,0-1,.16,2.3,2.3,0,0,0-.75.45,2.52,2.52,0,0,0-.52.67,4.17,4.17,0,0,0-.33.84l-1.35-.52a5.29,5.29,0,0,1,.5-1.09,3.65,3.65,0,0,1,1.94-1.6,4.61,4.61,0,0,1,1.59-.25,4.65,4.65,0,0,1,1.64.27,3.24,3.24,0,0,1,2,1.91,4,4,0,0,1,.26,1.47,4.36,4.36,0,0,1-.21,1.37,5.32,5.32,0,0,1-.57,1.2,7.25,7.25,0,0,1-.87,1.11q-.51.54-1.11,1.08l-3.38,3h6.61Z"/><path d="M179.41,200.63a3.55,3.55,0,0,1-3.29-1.71,11.59,11.59,0,0,1,0-9.58,4,4,0,0,1,6.57,0,11.59,11.59,0,0,1,0,9.58A3.55,3.55,0,0,1,179.41,200.63Zm0-1.33a2.46,2.46,0,0,0,1.26-.3,2.33,2.33,0,0,0,.85-.86,4.29,4.29,0,0,0,.48-1.31,8.45,8.45,0,0,0,.15-1.67v-2a8.44,8.44,0,0,0-.15-1.67,4.3,4.3,0,0,0-.48-1.31,2.35,2.35,0,0,0-.85-.86,2.76,2.76,0,0,0-2.52,0,2.35,2.35,0,0,0-.85.86,4.28,4.28,0,0,0-.48,1.31,8.37,8.37,0,0,0-.15,1.67v2a8.37,8.37,0,0,0,.15,1.67,4.26,4.26,0,0,0,.48,1.31,2.33,2.33,0,0,0,.85.86A2.46,2.46,0,0,0,179.41,199.3Z"/><path d="M112.07,222v-1.33h3.51V210.56h-.13l-3.17,3-.88-1,3.33-3.11h2.36v11.23h3.24V222Z"/><path d="M122.87,222v-1.33h3.51V210.56h-.13l-3.17,3-.88-1,3.33-3.11h2.36v11.23h3.24V222Z"/><path d="M134.71,214.83a1,1,0,0,1-1.1-1v-.23a1.1,1.1,0,1,1,2.2,0v.23a1,1,0,0,1-1.1,1Zm0,7.4a1,1,0,0,1-1.1-1V221a1.1,1.1,0,1,1,2.2,0v.23a1,1,0,0,1-1.1,1Z"/><path d="M142.74,222.23a3.55,3.55,0,0,1-3.29-1.71,11.59,11.59,0,0,1,0-9.58,4,4,0,0,1,6.57,0,11.59,11.59,0,0,1,0,9.58A3.55,3.55,0,0,1,142.74,222.23Zm0-1.33a2.46,2.46,0,0,0,1.26-.3,2.33,2.33,0,0,0,.85-.86,4.29,4.29,0,0,0,.48-1.31,8.45,8.45,0,0,0,.15-1.67v-2a8.44,8.44,0,0,0-.15-1.67,4.3,4.3,0,0,0-.48-1.31,2.35,2.35,0,0,0-.85-.86,2.76,2.76,0,0,0-2.52,0,2.35,2.35,0,0,0-.85.86,4.28,4.28,0,0,0-.48,1.31,8.37,8.37,0,0,0-.15,1.67v2a8.37,8.37,0,0,0,.15,1.67,4.26,4.26,0,0,0,.48,1.31,2.33,2.33,0,0,0,.85.86A2.46,2.46,0,0,0,142.74,220.9Z"/><path d="M153.54,222.23a3.55,3.55,0,0,1-3.29-1.71,11.59,11.59,0,0,1,0-9.58,4,4,0,0,1,6.57,0,11.59,11.59,0,0,1,0,9.58A3.55,3.55,0,0,1,153.54,222.23Zm0-1.33a2.46,2.46,0,0,0,1.26-.3,2.33,2.33,0,0,0,.85-.86,4.29,4.29,0,0,0,.48-1.31,8.45,8.45,0,0,0,.15-1.67v-2a8.44,8.44,0,0,0-.15-1.67,4.3,4.3,0,0,0-.48-1.31,2.35,2.35,0,0,0-.85-.86,2.76,2.76,0,0,0-2.52,0,2.35,2.35,0,0,0-.85.86A4.28,4.28,0,0,0,151,213a8.37,8.37,0,0,0-.15,1.67v2a8.37,8.37,0,0,0,.15,1.67,4.26,4.26,0,0,0,.48,1.31,2.33,2.33,0,0,0,.85.86A2.46,2.46,0,0,0,153.54,220.9Z"/></g></g></svg>