<svg width="140" height="198" viewBox="0 0 140 198" fill="none" xmlns="http://www.w3.org/2000/svg">
<g clip-path="url(#clip0)">
<path d="M128.134 198H17.7588C11.2287 198 5.89307 192.653 5.89307 186.109V18.1959C5.89307 11.6518 11.2287 6.30472 17.7588 6.30472H128.214C134.744 6.30472 140.08 11.6518 140.08 18.1959V186.109C140 192.653 134.664 198 128.134 198Z" fill="black"/>
<path d="M122.639 192.094H12.2637C5.73356 192.094 0.397949 186.747 0.397949 180.203V12.2902C0.397949 5.74605 5.73356 0.399017 12.2637 0.399017H122.639C129.169 0.399017 134.505 5.74605 134.505 12.2902V180.203C134.505 186.747 129.249 192.094 122.639 192.094Z" fill="white" stroke="black" stroke-miterlimit="10"/>
<path d="M79.8748 134.474H55.0284C51.2059 134.474 48.1001 131.362 48.1001 127.531V68.075C48.1001 64.2443 51.2059 61.1318 55.0284 61.1318H79.8748C83.6974 61.1318 86.8032 64.2443 86.8032 68.075V127.611C86.8032 131.362 83.6974 134.474 79.8748 134.474Z" stroke="black" stroke-miterlimit="10"/>
<path d="M68.3276 25.3785C73.3855 25.3785 77.4857 21.2695 77.4857 16.2007C77.4857 11.132 73.3855 7.02298 68.3276 7.02298C63.2697 7.02298 59.1694 11.132 59.1694 16.2007C59.1694 21.2695 63.2697 25.3785 68.3276 25.3785Z" stroke="black" stroke-miterlimit="10"/>
<path d="M64.1865 21.0689L72.4687 12.1306" stroke="black" stroke-miterlimit="10"/>
<path d="M68.3276 187.226C73.3855 187.226 77.4857 183.117 77.4857 178.048C77.4857 172.98 73.3855 168.871 68.3276 168.871C63.2697 168.871 59.1694 172.98 59.1694 178.048C59.1694 183.117 63.2697 187.226 68.3276 187.226Z" stroke="black" stroke-miterlimit="10"/>
<path d="M64.1865 182.917L72.4687 173.978" stroke="black" stroke-miterlimit="10"/>
<path d="M89.5904 129.446H53.1968L59.5677 114.203H96.0409L89.5904 129.446Z" fill="white" stroke="black" stroke-miterlimit="10"/>
<path d="M95.5634 114.203H59.1697L49.3745 95.289H85.7681L95.5634 114.203Z" fill="white" stroke="black" stroke-miterlimit="10"/>
<path d="M85.3699 95.289H49.5337V66.4789C49.5337 64.7231 50.9671 63.2866 52.7191 63.2866H82.2641C84.0161 63.2866 85.4495 64.7231 85.4495 66.4789V95.289H85.3699Z" fill="white" stroke="black" stroke-miterlimit="10"/>
<path d="M49.5337 95.289V115.719L53.1969 129.446L59.1696 114.203L49.5337 95.289Z" fill="white" stroke="black" stroke-miterlimit="10"/>
<path d="M47.5223 156.162C46.4783 156.162 45.5363 155.946 44.6963 155.514C43.8563 155.082 43.1963 154.482 42.7163 153.714C42.2483 152.946 42.0143 152.076 42.0143 151.104C42.0143 150.144 42.2483 149.28 42.7163 148.512C43.1963 147.744 43.8503 147.15 44.6783 146.73C45.5183 146.298 46.4663 146.082 47.5223 146.082C48.5783 146.082 49.5263 146.298 50.3663 146.73C51.2063 147.15 51.8603 147.744 52.3283 148.512C52.7963 149.268 53.0303 150.132 53.0303 151.104C53.0303 152.076 52.7963 152.946 52.3283 153.714C51.8603 154.482 51.2063 155.082 50.3663 155.514C49.5263 155.946 48.5783 156.162 47.5223 156.162ZM47.5223 153.444C48.1223 153.444 48.6143 153.24 48.9983 152.832C49.3823 152.412 49.5743 151.836 49.5743 151.104C49.5743 150.384 49.3823 149.82 48.9983 149.412C48.6143 149.004 48.1223 148.8 47.5223 148.8C46.9223 148.8 46.4303 149.004 46.0463 149.412C45.6623 149.82 45.4703 150.384 45.4703 151.104C45.4703 151.836 45.6623 152.412 46.0463 152.832C46.4303 153.24 46.9223 153.444 47.5223 153.444ZM57.8726 147.414C58.2206 146.97 58.6706 146.64 59.2226 146.424C59.7866 146.196 60.4286 146.082 61.1486 146.082V149.16C60.8366 149.124 60.5786 149.106 60.3746 149.106C59.6426 149.106 59.0666 149.304 58.6466 149.7C58.2386 150.096 58.0346 150.702 58.0346 151.518V156H54.6146V146.244H57.8726V147.414ZM72.84 142.644V156H69.582V155.028C68.946 155.784 67.992 156.162 66.72 156.162C65.832 156.162 65.022 155.958 64.29 155.55C63.558 155.13 62.976 154.536 62.544 153.768C62.124 153 61.914 152.112 61.914 151.104C61.914 150.096 62.124 149.214 62.544 148.458C62.976 147.69 63.558 147.102 64.29 146.694C65.022 146.286 65.832 146.082 66.72 146.082C67.884 146.082 68.784 146.418 69.42 147.09V142.644H72.84ZM67.44 153.444C68.028 153.444 68.514 153.24 68.898 152.832C69.282 152.412 69.474 151.836 69.474 151.104C69.474 150.384 69.282 149.82 68.898 149.412C68.526 149.004 68.04 148.8 67.44 148.8C66.84 148.8 66.348 149.004 65.964 149.412C65.58 149.82 65.388 150.384 65.388 151.104C65.388 151.836 65.58 152.412 65.964 152.832C66.348 153.24 66.84 153.444 67.44 153.444ZM85.0124 151.14C85.0124 151.164 84.9944 151.446 84.9584 151.986H77.8664C78.0104 152.49 78.2864 152.88 78.6944 153.156C79.1144 153.42 79.6364 153.552 80.2604 153.552C80.7284 153.552 81.1304 153.486 81.4664 153.354C81.8144 153.222 82.1624 153.006 82.5104 152.706L84.3104 154.578C83.3624 155.634 81.9764 156.162 80.1524 156.162C79.0124 156.162 78.0104 155.946 77.1464 155.514C76.2824 155.082 75.6104 154.482 75.1304 153.714C74.6624 152.946 74.4284 152.076 74.4284 151.104C74.4284 150.144 74.6564 149.286 75.1124 148.53C75.5804 147.762 76.2224 147.162 77.0384 146.73C77.8544 146.298 78.7724 146.082 79.7924 146.082C80.7644 146.082 81.6464 146.286 82.4384 146.694C83.2304 147.09 83.8544 147.672 84.3104 148.44C84.7784 149.196 85.0124 150.096 85.0124 151.14ZM79.8104 148.512C79.2824 148.512 78.8384 148.662 78.4784 148.962C78.1304 149.262 77.9084 149.67 77.8124 150.186H81.8084C81.7124 149.67 81.4844 149.262 81.1244 148.962C80.7764 148.662 80.3384 148.512 79.8104 148.512ZM89.8472 147.414C90.1952 146.97 90.6452 146.64 91.1972 146.424C91.7612 146.196 92.4032 146.082 93.1232 146.082V149.16C92.8112 149.124 92.5532 149.106 92.3492 149.106C91.6172 149.106 91.0412 149.304 90.6212 149.7C90.2132 150.096 90.0092 150.702 90.0092 151.518V156H86.5892V146.244H89.8472V147.414Z" fill="#242424"/>
<path d="M45.2744 53.162C44.1944 53.162 43.2284 52.946 42.3764 52.514C41.5244 52.082 40.8584 51.482 40.3784 50.714C39.9104 49.946 39.6764 49.076 39.6764 48.104C39.6764 47.132 39.9104 46.268 40.3784 45.512C40.8584 44.744 41.5244 44.15 42.3764 43.73C43.2284 43.298 44.1944 43.082 45.2744 43.082C46.3784 43.082 47.3324 43.322 48.1364 43.802C48.9404 44.27 49.5104 44.924 49.8464 45.764L47.2004 47.114C46.7564 46.238 46.1084 45.8 45.2564 45.8C44.6444 45.8 44.1344 46.004 43.7264 46.412C43.3304 46.82 43.1324 47.384 43.1324 48.104C43.1324 48.836 43.3304 49.412 43.7264 49.832C44.1344 50.24 44.6444 50.444 45.2564 50.444C46.1084 50.444 46.7564 50.006 47.2004 49.13L49.8464 50.48C49.5104 51.32 48.9404 51.98 48.1364 52.46C47.3324 52.928 46.3784 53.162 45.2744 53.162ZM57.453 43.082C58.665 43.082 59.637 43.442 60.369 44.162C61.113 44.882 61.485 45.968 61.485 47.42V53H58.065V47.978C58.065 46.646 57.531 45.98 56.463 45.98C55.875 45.98 55.401 46.172 55.041 46.556C54.693 46.94 54.519 47.516 54.519 48.284V53H51.099V39.644H54.519V44.144C54.891 43.796 55.329 43.532 55.833 43.352C56.337 43.172 56.877 43.082 57.453 43.082ZM67.7902 43.082C69.4102 43.082 70.6462 43.454 71.4982 44.198C72.3502 44.93 72.7762 46.058 72.7762 47.582V53H69.5902V51.74C69.0982 52.688 68.1382 53.162 66.7102 53.162C65.9542 53.162 65.3002 53.03 64.7482 52.766C64.1962 52.502 63.7762 52.148 63.4882 51.704C63.2122 51.248 63.0742 50.732 63.0742 50.156C63.0742 49.232 63.4282 48.518 64.1362 48.014C64.8442 47.498 65.9362 47.24 67.4122 47.24H69.3562C69.2962 46.208 68.6062 45.692 67.2862 45.692C66.8182 45.692 66.3442 45.77 65.8642 45.926C65.3842 46.07 64.9762 46.274 64.6402 46.538L63.4882 44.216C64.0282 43.856 64.6822 43.58 65.4502 43.388C66.2302 43.184 67.0102 43.082 67.7902 43.082ZM67.6642 51.002C68.0602 51.002 68.4082 50.906 68.7082 50.714C69.0082 50.522 69.2242 50.24 69.3562 49.868V49.022H67.8802C66.8842 49.022 66.3862 49.352 66.3862 50.012C66.3862 50.312 66.5002 50.552 66.7282 50.732C66.9562 50.912 67.2682 51.002 67.6642 51.002ZM79.9715 53.162C78.9275 53.162 77.9855 52.946 77.1455 52.514C76.3055 52.082 75.6455 51.482 75.1655 50.714C74.6975 49.946 74.4635 49.076 74.4635 48.104C74.4635 47.144 74.6975 46.28 75.1655 45.512C75.6455 44.744 76.2995 44.15 77.1275 43.73C77.9675 43.298 78.9155 43.082 79.9715 43.082C81.0275 43.082 81.9755 43.298 82.8155 43.73C83.6555 44.15 84.3095 44.744 84.7775 45.512C85.2455 46.268 85.4795 47.132 85.4795 48.104C85.4795 49.076 85.2455 49.946 84.7775 50.714C84.3095 51.482 83.6555 52.082 82.8155 52.514C81.9755 52.946 81.0275 53.162 79.9715 53.162ZM79.9715 50.444C80.5715 50.444 81.0635 50.24 81.4475 49.832C81.8315 49.412 82.0235 48.836 82.0235 48.104C82.0235 47.384 81.8315 46.82 81.4475 46.412C81.0635 46.004 80.5715 45.8 79.9715 45.8C79.3715 45.8 78.8795 46.004 78.4955 46.412C78.1115 46.82 77.9195 47.384 77.9195 48.104C77.9195 48.836 78.1115 49.412 78.4955 49.832C78.8795 50.24 79.3715 50.444 79.9715 50.444ZM90.6098 53.162C89.7938 53.162 88.9898 53.072 88.1978 52.892C87.4058 52.7 86.7698 52.454 86.2898 52.154L87.3158 49.814C87.7598 50.09 88.2878 50.312 88.8998 50.48C89.5118 50.636 90.1178 50.714 90.7178 50.714C91.2698 50.714 91.6598 50.66 91.8878 50.552C92.1278 50.432 92.2478 50.264 92.2478 50.048C92.2478 49.832 92.1038 49.682 91.8158 49.598C91.5398 49.502 91.0958 49.412 90.4838 49.328C89.7038 49.232 89.0378 49.106 88.4858 48.95C87.9458 48.794 87.4778 48.506 87.0818 48.086C86.6858 47.666 86.4878 47.078 86.4878 46.322C86.4878 45.698 86.6738 45.146 87.0458 44.666C87.4178 44.174 87.9578 43.79 88.6658 43.514C89.3858 43.226 90.2438 43.082 91.2398 43.082C91.9478 43.082 92.6498 43.154 93.3458 43.298C94.0418 43.442 94.6238 43.646 95.0918 43.91L94.0658 46.232C93.2018 45.752 92.2658 45.512 91.2578 45.512C90.7178 45.512 90.3218 45.578 90.0698 45.71C89.8178 45.83 89.6918 45.992 89.6918 46.196C89.6918 46.424 89.8298 46.586 90.1058 46.682C90.3818 46.766 90.8378 46.856 91.4738 46.952C92.2778 47.072 92.9438 47.21 93.4718 47.366C93.9998 47.522 94.4558 47.81 94.8398 48.23C95.2358 48.638 95.4338 49.214 95.4338 49.958C95.4338 50.57 95.2478 51.122 94.8758 51.614C94.5038 52.094 93.9518 52.472 93.2198 52.748C92.4998 53.024 91.6298 53.162 90.6098 53.162Z" fill="#242424"/>
</g>
<defs>
<clipPath id="clip0">
<rect width="140" height="198" fill="white"/>
</clipPath>
</defs>
</svg>
