<?xml version="1.0" encoding="utf-8"?>
<!-- Generator: Adobe Illustrator 21.1.0, SVG Export Plug-In . SVG Version: 6.00 Build 0)  -->
<svg version="1.1" xmlns="http://www.w3.org/2000/svg" xmlns:xlink="http://www.w3.org/1999/xlink" x="0px" y="0px"
	 viewBox="0 0 237 260" style="enable-background:new 0 0 237 260;" xml:space="preserve">
<style type="text/css">
	.st0{stroke:#000000;stroke-linejoin:round;stroke-miterlimit:10;}
	.st1{fill:#FFFFFF;stroke:#000000;stroke-linejoin:round;stroke-miterlimit:10;}
	.st2{fill:none;stroke:#000000;stroke-width:3;stroke-linecap:round;stroke-linejoin:round;stroke-miterlimit:10;}
	.st3{fill:#242424;stroke:#000000;stroke-miterlimit:10;}
	.st4{fill:none;stroke:#EEEEEE;stroke-width:0.25;stroke-miterlimit:10;}
	.st5{fill:none;stroke:#7DFF6A;stroke-width:2;stroke-linejoin:round;stroke-miterlimit:10;}
	.st6{fill:#ECBC43;stroke:#000000;stroke-miterlimit:10;}
	.st7{fill:#FFFFFF;}
</style>
<g id="Calque_1">
</g>
<g id="Calque_4">
	<g id="Calque_7">
		<polygon class="st0" points="204.4,44 213.5,44 213.5,141.5 226.5,141.5 226.5,185 216.5,185 194.5,142.6 		"/>
	</g>
	<path class="st1" d="M51.3,167.7h145.9v49.4H51.3C51.3,217.1,49.7,167.7,51.3,167.7z"/>
	<polyline class="st1" points="197.2,167.7 197.2,217.1 222.5,185.9 222.5,144.5 197.5,167.5 	"/>
	<polygon class="st1" points="222.4,144.7 74.3,146.9 51.3,167.7 197.2,167.7 	"/>
	<line class="st2" x1="145.5" y1="185.6" x2="183.7" y2="185.6"/>
	<rect x="60.5" y="181.5" class="st1" width="12" height="8"/>
</g>
<g id="Calque_2">
	<rect x="76" y="66.7" class="st3" width="98.8" height="80.8"/>
	<polygon class="st1" points="62.5,57.7 78.2,42 208.5,42.5 188.2,57.7 	"/>
	<path class="st1" d="M209.5,144.6l-1-102.1c0,0-19.9,15.8-21.4,15.8l1.1,103.8L209.5,144.6z"/>
	<g>
		<line class="st4" x1="87.5" y1="150.5" x2="87.5" y2="61.5"/>
		<line class="st4" x1="101.5" y1="61.5" x2="101.5" y2="150.5"/>
		<line class="st4" x1="115.5" y1="62" x2="115.5" y2="151"/>
		<line class="st4" x1="129.5" y1="150.5" x2="129.5" y2="61.5"/>
		<line class="st4" x1="143.5" y1="61.5" x2="143.5" y2="150.5"/>
		<line class="st4" x1="157.5" y1="62" x2="157.5" y2="151"/>
		<line class="st4" x1="170.5" y1="61" x2="170.5" y2="150"/>
		<line class="st4" x1="178.4" y1="83.5" x2="75.6" y2="83.5"/>
		<line class="st4" x1="177.8" y1="97.5" x2="75" y2="97.5"/>
		<line class="st4" x1="75.6" y1="111.5" x2="178.4" y2="111.5"/>
		<line class="st4" x1="178.4" y1="125.5" x2="75.6" y2="125.5"/>
		<line class="st4" x1="177.8" y1="139.5" x2="75" y2="139.5"/>
	</g>
	<path class="st5" d="M51.3,167.7"/>
	<path class="st1" d="M62.5,57.7v104.4h125.7V57.7H62.5z M174.7,147.5H76V66.7h98.8V147.5z"/>
	<polygon points="75.5,147.5 79.8,147.5 79.8,71.5 174.6,71.5 174.6,66.5 75.5,66.5 	"/>
</g>
<g id="Calque_6">
	<path class="st6" d="M121,84.1l1.7,0.8c1.9,0.9,4.2,0.9,6.1-0.1l1.7-0.8l1.3,1.4c1.5,1.6,3.5,2.4,5.7,2.3l1.9-0.1l0.7,1.8
		c0.7,2,2.4,3.6,4.4,4.3l1.8,0.6l-0.1,1.9c-0.1,2.1,0.8,4.2,2.4,5.6l1.4,1.2l-0.8,1.7c-0.9,1.9-0.9,4.2,0.1,6.1l0.8,1.7l-1.4,1.3
		c-1.6,1.5-2.4,3.5-2.3,5.7l0.1,1.9l-1.8,0.7c-2,0.7-3.6,2.4-4.3,4.4l-0.6,1.8l-1.9-0.1c-2.1-0.1-4.2,0.8-5.6,2.4l-1.2,1.4l-1.7-0.8
		c-1.9-0.9-4.2-0.9-6.1,0.1l-1.7,0.8l-1.3-1.4c-1.5-1.6-3.5-2.4-5.7-2.3l-1.9,0.1l-0.7-1.8c-0.7-2-2.4-3.6-4.4-4.3l-1.8-0.6l0.1-1.9
		c0.1-2.1-0.8-4.2-2.4-5.6l-1.4-1.2l0.8-1.7c0.9-1.9,0.9-4.2-0.1-6.1l-0.8-1.7l1.4-1.3c1.6-1.5,2.4-3.5,2.3-5.7l-0.1-1.9l1.8-0.7
		c2-0.7,3.6-2.4,4.3-4.4l0.6-1.8l1.9,0.1c2.1,0.1,4.2-0.8,5.6-2.4L121,84.1z"/>
	<path class="st7" d="M114.2,99.9l2.5-0.6l0.3,9.3l-2.5,0.6L114.2,99.9z"/>
	<path class="st7" d="M121.1,100.3l0.1,1.6l4-0.9l0.1,2l-4,0.9l0.1,1.7l4.7-1.1l0,2l-7.1,1.7l-0.3-9.3l7-1.6l0.1,2L121.1,100.3z"/>
	<path class="st7" d="M127.1,96.9l3.9-0.9c0.9-0.2,1.7-0.2,2.5-0.1c0.7,0.1,1.4,0.5,1.8,0.9c0.5,0.5,0.8,1.1,1,1.9
		c0.2,1,0.2,2-0.1,2.9c-0.3,0.9-0.8,1.6-1.5,2.3c-0.7,0.6-1.7,1.1-2.7,1.3l-4.5,1.1L127.1,96.9z M131.5,103.1
		c0.6-0.1,1.1-0.4,1.5-0.8c0.4-0.4,0.6-0.8,0.8-1.3c0.1-0.5,0.1-1,0-1.6c-0.1-0.6-0.4-1-0.9-1.3c-0.4-0.2-1-0.3-1.8-0.1l-1.5,0.3
		l0.2,5.1L131.5,103.1z"/>
	<g>
		<path class="st7" d="M113.6,117.7l3.3-0.8l0.1,2.1l-6.9,1.6l0-1.6l3.2-3.9c0.4-0.5,0.6-0.8,0.7-1.1c0.1-0.3,0.1-0.5,0.1-0.8
			c-0.1-0.3-0.2-0.4-0.4-0.5c-0.2-0.1-0.5-0.1-0.9,0c-0.3,0.1-0.6,0.2-0.8,0.4c-0.2,0.2-0.4,0.5-0.6,0.8l-1.9-0.7
			c0.2-0.6,0.6-1.2,1.2-1.7c0.6-0.5,1.3-0.8,2.1-1c0.6-0.1,1.2-0.2,1.8-0.1c0.5,0.1,1,0.3,1.4,0.6c0.4,0.3,0.6,0.7,0.7,1.2
			c0.1,0.6,0.1,1.1-0.1,1.7c-0.2,0.6-0.6,1.2-1.2,2L113.6,117.7z"/>
		<path class="st7" d="M119.2,117.7c-0.7-0.5-1.2-1.2-1.5-2.3c-0.3-1.1-0.3-2.1-0.1-3.1c0.2-1,0.6-1.8,1.2-2.5
			c0.6-0.7,1.4-1.1,2.3-1.3c1-0.2,1.9-0.1,2.6,0.3c0.7,0.5,1.2,1.2,1.5,2.3c0.3,1.1,0.3,2.1,0.1,3.1c-0.2,1-0.6,1.8-1.2,2.5
			c-0.6,0.7-1.4,1.1-2.3,1.3C120.8,118.3,120,118.2,119.2,117.7z M122.5,115.1c0.2-0.5,0.3-1,0.3-1.6c0-0.6,0-1.2-0.2-1.7
			c-0.1-0.5-0.3-0.8-0.5-1c-0.2-0.2-0.5-0.2-0.8-0.2c-0.4,0.1-0.7,0.4-0.9,0.8c-0.2,0.5-0.3,1-0.3,1.6c0,0.6,0,1.2,0.2,1.7
			c0.2,1,0.7,1.4,1.4,1.2C122,115.9,122.3,115.6,122.5,115.1z"/>
		<path class="st7" d="M129.8,113.9l3.3-0.8l0.1,2.1l-6.9,1.6l0-1.6l3.2-3.9c0.4-0.5,0.6-0.8,0.7-1.1c0.1-0.3,0.1-0.5,0.1-0.8
			c-0.1-0.3-0.2-0.4-0.4-0.5c-0.2-0.1-0.5-0.1-0.9,0c-0.3,0.1-0.6,0.2-0.8,0.4c-0.2,0.2-0.4,0.5-0.6,0.8l-1.9-0.7
			c0.2-0.6,0.6-1.2,1.2-1.7c0.6-0.5,1.3-0.8,2.1-1c0.6-0.1,1.2-0.2,1.8-0.1c0.5,0.1,1,0.3,1.4,0.6c0.4,0.3,0.6,0.7,0.7,1.2
			c0.1,0.6,0.1,1.1-0.1,1.7c-0.2,0.6-0.6,1.2-1.2,2L129.8,113.9z"/>
		<path class="st7" d="M135.4,114c-0.7-0.5-1.2-1.2-1.5-2.3c-0.3-1.1-0.3-2.1-0.1-3.1c0.2-1,0.6-1.8,1.2-2.5
			c0.6-0.7,1.4-1.1,2.3-1.3c1-0.2,1.9-0.1,2.6,0.3c0.7,0.5,1.2,1.2,1.5,2.3c0.3,1.1,0.3,2.1,0.1,3.1c-0.2,1-0.6,1.8-1.2,2.5
			c-0.6,0.7-1.4,1.1-2.3,1.3C137,114.6,136.2,114.4,135.4,114z M138.7,111.4c0.2-0.5,0.3-1,0.3-1.6c0-0.6,0-1.2-0.2-1.7
			c-0.1-0.5-0.3-0.8-0.5-1c-0.2-0.2-0.5-0.2-0.8-0.2c-0.4,0.1-0.7,0.4-0.9,0.8c-0.2,0.5-0.3,1-0.3,1.6c0,0.6,0,1.2,0.2,1.7
			c0.2,1,0.7,1.4,1.4,1.2C138.2,112.1,138.5,111.8,138.7,111.4z"/>
	</g>
</g>
<g id="Calque_3">
	<polygon class="st1" points="49,201.4 197.2,201.4 172.5,230.5 19.8,230.5 	"/>
	<rect x="19.8" y="230.5" class="st1" width="152.6" height="13.5"/>
	<path class="st1" d="M197.2,201.4v15.7L172.5,244v-13.5C172.5,230.5,197.2,202.4,197.2,201.4z"/>
	<polygon class="st1" points="53.4,204.9 186.2,204.9 167.5,227 31.3,227 	"/>
</g>
<g id="Calque_5">
</g>
</svg>
