<svg id="Layer_1" data-name="Layer 1" xmlns="http://www.w3.org/2000/svg" viewBox="0 0 1401 1401"><defs><style>.cls-1{fill:none;stroke:#000;stroke-miterlimit:10;}</style></defs><title>grid</title><line class="cls-1" x1="0.5" y1="0.5" x2="0.5" y2="1400.5"/><line class="cls-1" x1="100.5" y1="0.5" x2="100.5" y2="1400.5"/><line class="cls-1" x1="200.5" y1="0.5" x2="200.5" y2="1400.5"/><line class="cls-1" x1="300.5" y1="0.5" x2="300.5" y2="1400.5"/><line class="cls-1" x1="400.5" y1="0.5" x2="400.5" y2="1400.5"/><line class="cls-1" x1="500.5" y1="0.5" x2="500.5" y2="1400.5"/><line class="cls-1" x1="600.5" y1="0.5" x2="600.5" y2="1400.5"/><line class="cls-1" x1="700.5" y1="0.5" x2="700.5" y2="1400.5"/><line class="cls-1" x1="800.5" y1="0.5" x2="800.5" y2="1400.5"/><line class="cls-1" x1="900.5" y1="0.5" x2="900.5" y2="1400.5"/><line class="cls-1" x1="1000.5" y1="0.5" x2="1000.5" y2="1400.5"/><line class="cls-1" x1="1100.5" y1="0.5" x2="1100.5" y2="1400.5"/><line class="cls-1" x1="1200.5" y1="0.5" x2="1200.5" y2="1400.5"/><line class="cls-1" x1="1300.5" y1="0.5" x2="1300.5" y2="1400.5"/><line class="cls-1" x1="1400.5" y1="0.5" x2="1400.5" y2="1400.5"/><line class="cls-1" x1="0.5" y1="0.5" x2="1400.5" y2="0.5"/><line class="cls-1" x1="0.5" y1="100.5" x2="1400.5" y2="100.5"/><line class="cls-1" x1="0.5" y1="200.5" x2="1400.5" y2="200.5"/><line class="cls-1" x1="0.5" y1="300.5" x2="1400.5" y2="300.5"/><line class="cls-1" x1="0.5" y1="400.5" x2="1400.5" y2="400.5"/><line class="cls-1" x1="0.5" y1="500.5" x2="1400.5" y2="500.5"/><line class="cls-1" x1="0.5" y1="600.5" x2="1400.5" y2="600.5"/><line class="cls-1" x1="0.5" y1="700.5" x2="1400.5" y2="700.5"/><line class="cls-1" x1="0.5" y1="800.5" x2="1400.5" y2="800.5"/><line class="cls-1" x1="0.5" y1="900.5" x2="1400.5" y2="900.5"/><line class="cls-1" x1="0.5" y1="1000.5" x2="1400.5" y2="1000.5"/><line class="cls-1" x1="0.5" y1="1200.5" x2="1400.5" y2="1200.5"/><line class="cls-1" x1="0.5" y1="1100.5" x2="1400.5" y2="1100.5"/><line class="cls-1" x1="0.5" y1="1300.5" x2="1400.5" y2="1300.5"/><line class="cls-1" x1="0.5" y1="1400.5" x2="1400.5" y2="1400.5"/></svg>